<svg width="179" height="175" viewBox="0 0 179 175" fill="none" xmlns="http://www.w3.org/2000/svg">
<path d="M98.5811 168.463C97.49 157.275 113.25 157.051 112.267 168.302C112.142 169.719 111.323 171.513 110.343 172.543C106.361 176.728 99.1392 174.177 98.5811 168.463ZM107.52 173.182C111.2 171.15 110.882 159.997 104.788 160.827C98.6042 161.669 100.311 177.16 107.52 173.182ZM134.184 157.124C134.416 156.624 134.715 156.428 135.19 156.777C135.449 157.104 135.263 157.402 135.145 157.739C134.001 160.981 131.921 164.72 130.473 167.933C130.22 168.495 130.068 169.091 129.836 169.66L115.12 167.935C114.746 167.141 115.421 167.008 116.06 167.02C119.888 167.094 124.339 168.345 128.227 168.556C128.476 168.569 128.761 168.604 128.983 168.472L134.184 157.124ZM99.7637 70.8703C99.7637 70.3792 100.945 70.3792 100.945 70.8703V94.7628L121.63 106.584L121.749 130.78C125.086 134.03 128.828 136.882 132.19 140.097C132.503 140.396 133.08 140.83 133.044 141.278C132.971 142.166 131.98 141.486 131.602 141.193C128.548 138.837 125.548 135.557 122.563 133.006C122.354 132.828 121.281 131.917 121.158 131.932L101.273 143.312L103.987 157.668C104.204 158.767 103.116 158.998 102.846 157.956L100.068 143.427L79.1465 131.502L78.9814 130.992L79.0713 106.58L100.102 94.9298C100.194 94.8507 99.7637 94.5655 99.7637 94.5099V70.8703ZM139.082 140.563C148.614 140.208 148.472 156.233 138.351 155.209C130.189 154.384 130.324 140.889 139.082 140.563ZM142.854 143.785C141.938 141.839 140.33 141.217 138.221 141.575C133.439 142.391 133.396 155.194 139.854 154.354C144.241 153.784 144.291 146.843 142.854 143.785ZM80.0898 107.429V130.726L100.523 142.366L120.251 131.199L120.876 131.065L120.874 131.063C120.751 130.813 120.701 130.597 120.693 130.315C120.471 122.78 120.874 115.208 120.713 107.67L120.548 107.16L100.525 95.7814L80.0898 107.429ZM82.9834 128.884C83.29 128.785 83.6281 128.969 83.8906 129.114C88.9599 132.271 94.4072 134.863 99.4707 138.02C99.8849 138.279 101.253 138.893 100.865 139.51C100.518 140.062 99.8678 139.558 99.4746 139.364C94.6719 136.984 88.1657 133.267 83.6621 130.354C83.2708 130.1 81.8901 129.241 82.9834 128.884ZM118.338 108.86V129.123C118.337 129.458 117.326 129.458 117.325 129.123V108.776L118.063 108.616L118.338 108.86ZM99.6387 98.9435C100.415 98.5527 100.78 99.0052 100.569 99.7931H100.571L83.1973 109.705L82.3818 109.602L82.4531 108.945L99.6387 98.9435ZM13.9248 59.8527C23.2984 58.6501 24.5125 72.5994 16.543 74.2892C6.64003 76.3895 5.00593 60.996 13.9248 59.8527ZM16.8906 73.1173C20.8318 71.1583 20.4346 59.6147 14.0898 60.6945C8.40088 61.6612 9.65568 76.7118 16.8906 73.1173ZM100.097 64.2023C100.551 64.1673 100.977 63.6058 101.358 64.0314L106.089 72.3136C106.479 72.8869 105.376 73.3281 105.021 73.1193H105.023L100.097 64.2023ZM120.542 33.3761C120.989 33.6964 120.94 34.1837 120.662 34.6095V34.6076L120.248 34.7824L96.9863 25.7003L80.0879 35.4962L79.917 59.3029L58.7627 71.5998L37.6963 59.6984L24.1816 64.0363C23.5259 63.9863 23.6562 63.0588 24.2197 62.8878L37.1943 58.6359L37.1982 35.4845L24.2139 31.1173C23.8246 30.7548 23.8939 30.3245 24.3887 30.1154L24.9473 30.1613L37.5234 34.6017L58.6299 22.4953L79.5771 34.3107L97.6172 23.9796L103.224 19.7853L120.542 33.3761ZM104.162 63.0314C104.601 62.9468 104.995 62.4428 105.336 62.924L109.215 70.0187C108.872 70.1626 108.416 70.64 108.121 70.2794L104.164 63.0314H104.162ZM38.374 35.4982C38.0346 43.034 38.5213 50.6638 38.2969 58.215C38.2892 58.4969 38.237 58.7138 38.1162 58.963C38.4288 58.9515 38.6994 59.0711 38.9717 59.2111C44.7296 62.1725 50.3614 65.8509 56.0752 68.9582C56.9153 69.4146 57.7478 69.9178 58.6396 70.2726C64.741 66.588 71.1687 63.3921 77.2451 59.671C77.6901 59.3987 78.9078 58.8077 78.9902 58.3761L78.9619 35.1847V35.1828L58.8086 23.8546L38.374 35.4982ZM75.4473 56.8576C76.0704 56.5417 76.7399 57.1517 76.2305 57.7326V57.7345L59.0889 67.5353C57.3991 67.7731 57.9893 66.9159 59.0039 66.258C64.2094 62.8881 70.1996 60.2236 75.4473 56.8576ZM112.406 66.6759C111.562 67.8055 111.353 67.3323 110.769 66.4464C109.907 65.1442 109.186 63.5827 108.392 62.2267L109.303 61.5236L112.406 66.6759ZM150.591 15.8136C151.055 15.5605 151.287 15.9472 151.402 16.3537L145.022 27.3009L153.567 39.3712C153.799 39.9964 153.057 40.5409 152.62 39.9679L144.077 28.0832L121.883 35.4044L121.741 58.4328H121.739L144.238 65.8996L151.949 55.1642C152.519 54.8998 152.921 55.1854 152.764 55.8029C150.389 58.9945 148.226 62.5835 145.765 65.7003C145.452 66.0955 144.912 67.0057 144.423 67.0734L120.78 59.3097L120.796 35.3253L121.449 34.4699L143.828 26.9533L150.591 15.8136ZM112.257 60.8244C112.656 60.8145 113.047 60.3143 113.438 60.5617C113.585 60.6554 115.317 63.2019 115.382 63.3615C115.65 64.0423 114.857 64.2687 114.312 64.1691L112.257 60.8244ZM116.481 59.4738C117.872 58.6189 118.147 59.8714 118.605 60.9953L117.493 61.4269L116.481 59.4738ZM7.99805 36.0246C8.69429 35.8136 8.90932 36.4136 8.59863 36.9699L1.34668 46.8917L10.0566 58.9162C10.4402 59.5203 9.6865 60.1439 9.15137 59.6359L0 46.8898C1.01323 45.6556 7.34583 36.2236 7.99609 36.0246H7.99805ZM40.6504 37.0949C40.652 36.7603 41.6615 36.7603 41.6631 37.0949V57.3576L41.3887 57.6017L40.6504 57.4425V37.0949ZM153.695 42.3068C156.056 40.0589 160.013 39.7636 162.589 41.8234C168.128 46.2541 164.778 56.0615 157.311 55.0373C151.441 54.2316 149.627 46.1793 153.695 42.3068ZM158.164 41.2726C153.668 41.5087 153.333 48.4479 154.688 51.5822C156.413 55.5717 161.385 54.9334 162.507 50.8634C163.418 47.5643 162.823 41.0271 158.164 41.2726ZM76.2305 36.3898V36.3878C76.6082 36.8193 76.3797 37.2434 75.8506 37.3605L58.1162 27.2199C57.9533 26.9015 58.2588 26.4216 58.6309 26.4503L76.2305 36.3898ZM13.5859 21.1808C19.0081 20.339 22.6691 24.804 21.7197 29.9884C20.1872 38.357 7.51658 37.4479 8.0498 27.8019C8.21479 24.8136 10.5075 21.6584 13.5859 21.1789V21.1808ZM15.7266 34.8029C20.9414 34.0792 20.9985 20.8143 13.9229 22.0246C9.21623 22.8307 8.94826 35.7408 15.7266 34.8029ZM150.334 11.0167C147.778 5.93201 151.311 -0.542963 157.265 0.0362795C163.207 0.613891 165.257 8.61384 161.344 12.6398C158.125 15.9521 152.413 15.1482 150.334 11.0167ZM170.523 0.372217C171.056 0.834379 168.496 0.951274 168.496 1.63784V6.78823H174.914V2.14468C174.914 1.09751 173.788 0.701702 172.887 0.876123V0.370264H178.967V0.876123C177.745 0.780225 177.051 1.01301 176.932 2.30386C176.726 4.55596 176.656 10.442 176.955 12.5958C177.122 13.8023 177.885 13.9117 178.967 13.8791V14.3849H172.885V13.8791C173.307 13.9308 174.25 13.8118 174.532 13.4992C174.586 13.4394 174.912 12.4996 174.912 12.4425V7.88296L174.659 7.63003H168.494V13.1173C168.494 13.5489 170.084 14.0669 170.521 13.8771V14.3839H164.439V13.8771C165.429 13.9538 166.202 13.7103 166.308 12.6212C166.636 9.22059 166.05 5.27474 166.286 1.8146C166.127 0.817241 165.291 0.826223 164.438 0.87417V0.368311H170.518L170.523 0.372217ZM158.308 13.4035C162.29 11.5199 161.973 0.0799894 155.787 0.922022C149.815 1.73569 151.102 16.8095 158.308 13.4035Z" fill="url(#paint0_linear_2120_2341)"/>
<defs>
<linearGradient id="paint0_linear_2120_2341" x1="94.8228" y1="-9.10728" x2="111.43" y2="154.824" gradientUnits="userSpaceOnUse">
<stop stop-color="white"/>
<stop offset="1" stop-color="white" stop-opacity="0.6"/>
</linearGradient>
</defs>
</svg>
