<svg width="36" height="36" viewBox="0 0 36 36" fill="none" xmlns="http://www.w3.org/2000/svg">
<g clip-path="url(#clip0_2117_1636)">
<path d="M16.7317 30.6306L23.5914 34.591C24.0624 34.863 24.6426 34.863 25.1136 34.591L28.1457 32.8406C27.3487 32.1927 26.7408 31.3215 26.4173 30.3232L24.3735 31.5152L18.3422 28.021L18.3422 25.1924C17.8348 25.3452 17.3162 25.4277 16.7711 25.4277C16.2248 25.4277 15.7038 25.3448 15.1964 25.1914L15.1964 28.021L8.74698 31.7349L8.35799 31.9547C7.6299 32.375 7.37634 33.3059 7.79665 34.0338C8.21695 34.762 9.14578 35.0114 9.87387 34.591L16.7317 30.6306Z" fill="#98BCB7"/>
<path d="M5.00503 2.85179L2.28483 1.28147C1.55681 0.860949 0.625884 1.11037 0.205576 1.83847C0.0671321 2.07815 0.00141299 2.33984 0.00141297 2.59802C0.00141295 3.12405 0.274378 3.63572 0.762716 3.91772L2.03107 4.64995L3.40647 5.44405C3.68147 4.43037 4.2454 3.53476 5.00503 2.85179Z" fill="#98BCB7"/>
<path d="M32.2906 3.91772C33.0188 3.49742 33.268 2.56635 32.8477 1.83847C32.4274 1.11037 31.4965 0.860949 30.7685 1.28147L27.6664 3.07235C28.4047 3.77508 28.9442 4.68428 29.1914 5.70699L32.2906 3.91772Z" fill="#98BCB7"/>
<path d="M33.4621 23.6525L33.4621 20.1536C33.4621 19.6098 33.1495 19.1073 32.6785 18.8354L25.4454 14.6724L25.4454 12.1402C25.0395 12.2827 24.4518 12.3606 23.9233 12.3606C23.3946 12.3606 22.9085 12.2826 22.4011 12.1401L22.4011 14.84L20.2376 16.0982C21.0683 16.8304 21.6773 17.8163 21.9271 18.9336L24.3549 17.5381L30.4178 21.0324L30.4178 23.4161C30.7222 23.3384 31.1568 23.2966 31.5425 23.2966C32.2186 23.2967 32.8532 23.4234 33.4621 23.6525Z" fill="#98BCB7"/>
<path d="M12.9425 16.3507L10.3246 14.8401L10.3246 11.9399C9.81723 12.1258 9.19752 12.2283 8.59092 12.2283C8.13894 12.2283 7.68627 12.1716 7.28032 12.066L7.28032 15.7189C7.28032 16.2628 7.57199 16.7652 8.04296 17.0371L11.5062 19.0367C11.7159 18.0015 12.2267 17.0745 12.9425 16.3507Z" fill="#98BCB7"/>
<path d="M16.3801 4.35723L18.7182 5.7072C18.9654 4.68463 19.505 3.77536 20.2433 3.07256L17.1412 1.28168C16.6702 1.00962 16.09 1.00962 15.6191 1.28168L12.4523 3.10997C13.1609 3.84052 13.6647 4.77025 13.8694 5.8069L16.3801 4.35723Z" fill="#98BCB7"/>
<path d="M28.298 6.97266C28.298 4.57798 26.3498 2.62988 23.9552 2.62988C21.5606 2.62988 19.6123 4.57805 19.6123 6.97266C19.6123 9.36741 21.5605 11.3156 23.9552 11.3156C26.3498 11.3156 28.298 9.36741 28.298 6.97266Z" fill="#98BCB7"/>
<path d="M21.0285 20.1C21.0285 17.7054 19.0803 15.7572 16.6857 15.7572C14.2911 15.7572 12.3428 17.7054 12.3428 20.1C12.3428 22.4947 14.291 24.4429 16.6857 24.4429C19.0804 24.4429 21.0285 22.4947 21.0285 20.1Z" fill="#98BCB7"/>
<path d="M35.8722 28.6706C35.8722 26.2758 33.924 24.3276 31.5294 24.3276C29.1347 24.3276 27.1865 26.2758 27.1865 28.6706C27.1865 31.0652 29.1348 33.0133 31.5294 33.0133C33.924 33.0133 35.8722 31.0651 35.8722 28.6706Z" fill="#98BCB7"/>
<path d="M12.9386 6.85073C12.9386 4.45598 10.9904 2.50781 8.5957 2.50781C6.20109 2.50781 4.25278 4.45598 4.25278 6.85073C4.25278 9.24548 6.20102 11.1937 8.5957 11.1937C10.9904 11.1937 12.9386 9.24548 12.9386 6.85073Z" fill="#98BCB7"/>
</g>
<defs>
<clipPath id="clip0_2117_1636">
<rect width="35.8722" height="35.8722" fill="white" transform="translate(35.8722 1.56802e-06) rotate(90)"/>
</clipPath>
</defs>
</svg>
