<svg width="36" height="36" viewBox="0 0 36 36" fill="none" xmlns="http://www.w3.org/2000/svg">
<g clip-path="url(#clip0_2117_1667)">
<path d="M30.3766 25.221C29.3132 25.221 28.3233 25.5411 27.4971 26.0889L25.1695 23.7613C26.4649 22.1374 27.2414 20.0764 27.2414 17.8358C27.2414 16.841 27.0856 15.882 26.7981 14.9813L28.8716 13.8293C29.5779 14.3749 30.4623 14.7006 31.4217 14.7006C32.5366 14.7006 33.5947 14.2697 34.4012 13.4873C35.2204 12.6925 35.6716 11.6388 35.6716 10.5203C35.6716 9.40191 35.2204 8.34821 34.4012 7.5534C33.5947 6.77099 32.5366 6.34008 31.4217 6.34008C29.1167 6.34008 27.2414 8.21534 27.2414 10.5203C27.2414 11.1013 27.3608 11.6548 27.5759 12.158L25.9398 13.067C24.4698 10.5785 21.887 8.82246 18.8809 8.48859V6.09065C20.0973 5.65925 20.971 4.49762 20.971 3.1352C20.971 1.40645 19.5646 0 17.8358 0C16.1071 0 14.7006 1.40645 14.7006 3.1352C14.7006 4.49762 15.5744 5.65925 16.7907 6.09065V8.48859C14.7253 8.71795 12.8598 9.61873 11.4176 10.9672L7.98536 8.06757C8.22559 7.54058 8.36054 6.95597 8.36054 6.34008C8.36054 4.03508 6.48527 2.15981 4.18027 2.15981C1.87527 2.15981 0 4.03508 0 6.34008C0 8.64508 1.87527 10.5203 4.18027 10.5203C5.11331 10.5203 5.97577 10.2129 6.67213 9.69425L10.0572 12.5541C9.03092 14.0608 8.43021 15.8794 8.43021 17.8358C8.43021 19.73 8.98521 21.496 9.93943 22.978L8.78707 23.9249C8.09858 23.4261 7.25339 23.1308 6.34008 23.1308C4.03508 23.1308 2.15981 25.0061 2.15981 27.3111C2.15981 29.6161 4.03508 31.4914 6.34008 31.4914C8.64508 31.4914 10.5203 29.6161 10.5203 27.3111C10.5203 26.6755 10.3772 26.073 10.1223 25.533L11.2571 24.6005C12.7201 26.0447 14.6479 27.0125 16.7908 27.2523V29.581C15.5744 30.0124 14.7007 31.174 14.7007 32.5364C14.7007 34.2652 16.1071 35.6716 17.8359 35.6716C19.5646 35.6716 20.9711 34.2652 20.9711 32.5364C20.9711 31.174 20.0973 30.0124 18.881 29.581V27.2523C20.6886 27.05 22.3432 26.3298 23.6949 25.2424L26.0193 27.5669C25.4714 28.3931 25.1513 29.3828 25.1513 30.4463C25.1513 33.3275 27.4954 35.6716 30.3766 35.6716C31.7721 35.6716 33.0937 35.1311 34.0978 34.1495C35.1127 33.1576 35.6716 31.8424 35.6716 30.4463C35.6716 29.0502 35.1127 27.735 34.0978 26.7431C33.0937 25.7615 31.7721 25.221 30.3766 25.221ZM31.4217 8.43021C32.5924 8.43021 33.5815 9.38735 33.5815 10.5203C33.5815 11.6533 32.5924 12.6105 31.4217 12.6105C30.2692 12.6105 29.3316 11.6728 29.3316 10.5203C29.3316 9.36785 30.2692 8.43021 31.4217 8.43021ZM4.18027 8.43021C3.02777 8.43021 2.09013 7.49258 2.09013 6.34008C2.09013 5.18758 3.02777 4.24994 4.18027 4.24994C5.33277 4.24994 6.2704 5.18758 6.2704 6.34008C6.2704 7.49258 5.33277 8.43021 4.18027 8.43021ZM6.34008 29.4012C5.18758 29.4012 4.24994 28.4636 4.24994 27.3111C4.24994 26.1586 5.18758 25.221 6.34008 25.221C7.49258 25.221 8.43021 26.1586 8.43021 27.3111C8.43021 28.4636 7.49258 29.4012 6.34008 29.4012ZM17.8358 2.09013C18.4121 2.09013 18.8809 2.55895 18.8809 3.1352C18.8809 3.71145 18.4121 4.18027 17.8358 4.18027C17.2596 4.18027 16.7907 3.71145 16.7907 3.1352C16.7907 2.55895 17.2596 2.09013 17.8358 2.09013ZM17.8358 33.5815C17.2596 33.5815 16.7907 33.1127 16.7907 32.5364C16.7907 31.9602 17.2596 31.4914 17.8358 31.4914C18.4121 31.4914 18.8809 31.9602 18.8809 32.5364C18.8809 33.1127 18.4121 33.5815 17.8358 33.5815ZM17.8358 25.221C13.8021 25.221 10.5203 21.908 10.5203 17.8358C10.5203 13.8021 13.8021 10.5203 17.8358 10.5203C21.8696 10.5203 25.1513 13.8021 25.1513 17.8358C25.1513 21.908 21.8696 25.221 17.8358 25.221ZM30.3766 33.5815C28.6479 33.5815 27.2414 32.175 27.2414 30.4463C27.2414 28.7175 28.6479 27.3111 30.3766 27.3111C32.1139 27.3111 33.5815 28.7468 33.5815 30.4463C33.5815 32.1458 32.1139 33.5815 30.3766 33.5815Z" fill="#98BCB7"/>
</g>
<defs>
<clipPath id="clip0_2117_1667">
<rect width="35.6716" height="35.6716" fill="white"/>
</clipPath>
</defs>
</svg>
