<svg width="40" height="40" viewBox="0 0 40 40" fill="none" xmlns="http://www.w3.org/2000/svg">
<g clip-path="url(#clip0_2122_2415)">
<path d="M33.6628 5.77564C29.9383 2.05118 24.9864 0 19.7192 0C14.452 0 9.5001 2.05118 5.77556 5.77564C2.05118 9.5001 0 14.452 0 19.7192C0 24.9864 2.05118 29.9383 5.77556 33.6627C9.5001 37.3872 14.452 39.4384 19.7192 39.4384C24.9864 39.4384 29.9383 37.3872 33.6628 33.6627C37.3872 29.9383 39.4384 24.9864 39.4384 19.7192C39.4384 14.452 37.3872 9.5001 33.6628 5.77564ZM19.7192 37.1275C14.5684 37.1275 9.93377 34.8781 6.74365 31.3111C8.72135 26.068 13.784 22.3381 19.7192 22.3381C15.8904 22.3381 12.7867 19.2344 12.7867 15.4056C12.7867 11.5769 15.8904 8.47308 19.7192 8.47308C23.5479 8.47308 26.6517 11.5769 26.6517 15.4056C26.6517 19.2344 23.5479 22.3381 19.7192 22.3381C25.6543 22.3381 30.717 26.068 32.6947 31.3111C29.5046 34.8781 24.87 37.1275 19.7192 37.1275Z" fill="url(#paint0_linear_2122_2415)"/>
</g>
<defs>
<linearGradient id="paint0_linear_2122_2415" x1="6.0878" y1="-5.49595" x2="37.2768" y2="-7.20436" gradientUnits="userSpaceOnUse">
<stop stop-color="#5B726F"/>
<stop offset="1" stop-color="#293E3C"/>
</linearGradient>
<clipPath id="clip0_2122_2415">
<rect width="39.4384" height="39.4384" fill="white"/>
</clipPath>
</defs>
</svg>
