<svg width="42" height="42" viewBox="0 0 42 42" fill="none" xmlns="http://www.w3.org/2000/svg">
<rect width="41.9729" height="41.9729" rx="20.9865" fill="url(#paint0_linear_2122_2419)"/>
<g clip-path="url(#clip0_2122_2419)">
<path d="M32.0117 27.3691C32.0117 28.4449 31.1422 29.334 30.0469 29.334H12.6348C11.559 29.334 10.6699 28.4645 10.6699 27.3691V17.8154C10.7162 17.8501 10.764 17.8837 10.8125 17.916L19.5576 23.7471C20.0885 24.1009 20.7052 24.2881 21.3408 24.2881C21.9767 24.2881 22.594 24.101 23.125 23.7471L31.8701 17.916C31.9185 17.8838 31.9655 17.85 32.0117 17.8154V27.3691ZM30.0479 13.3496C31.1307 13.3496 32.0116 14.2306 32.0117 15.3135C32.0117 15.9432 31.7 16.5273 31.1768 16.876L22.4307 22.7061C22.0996 22.9267 21.7202 23.0371 21.3408 23.0371C20.9615 23.0371 20.582 22.9267 20.251 22.7061L11.5059 16.876C10.9826 16.5273 10.6699 15.9433 10.6699 15.3145C10.67 14.2306 11.551 13.3497 12.6338 13.3496H30.0479Z" fill="white"/>
</g>
<defs>
<linearGradient id="paint0_linear_2122_2419" x1="6.47904" y1="-5.84916" x2="39.6724" y2="-7.66736" gradientUnits="userSpaceOnUse">
<stop stop-color="#5B726F"/>
<stop offset="1" stop-color="#293E3C"/>
</linearGradient>
<clipPath id="clip0_2122_2419">
<rect width="21.3422" height="21.3422" fill="white" transform="translate(10.6699 10.6709)"/>
</clipPath>
</defs>
</svg>
