<svg width="53" height="52" viewBox="0 0 53 52" fill="none" xmlns="http://www.w3.org/2000/svg">
<path d="M16.2577 38.0369C16.5585 37.826 18.2949 38.4456 18.7792 38.5574C19.6073 38.7466 20.4481 38.9268 21.2948 39.0105C21.7198 44.6587 25.4826 49.2868 30.9911 50.3816L32.8856 50.6951C26.0962 52.4506 19.0957 50.7224 13.9315 45.949C13.6993 45.5387 15.8481 38.3262 16.2577 38.0369ZM15.7235 48.9978L16.7685 49.5379L16.7655 49.5408C16.7902 49.7857 16.5107 49.6435 16.3866 49.6062C15.4469 49.324 14.6004 48.5913 13.6327 48.368L13.62 47.6111L15.7235 48.9978ZM47.4413 30.6482C47.6056 30.6297 47.6952 30.677 47.8192 30.7762C48.1387 31.0337 48.933 32.3298 49.1532 32.7547C49.7301 33.8651 50.2725 35.4316 49.953 36.6971C49.7852 37.3611 48.6534 39.1723 48.2255 39.8143C45.7876 43.4865 41.3557 47.5217 37.1376 48.7996C30.2953 50.8715 23.7627 46.3457 22.8104 39.2615C31.7432 40.2044 41.0736 37.078 47.4413 30.6482ZM0.142479 26.16C0.381307 27.1649 1.19392 28.4401 1.9042 29.1814C2.21433 29.507 2.5555 29.6065 2.75088 29.7957C2.96168 29.9974 3.17592 30.5673 3.4208 30.8465C3.71236 31.1784 4.72051 32.0847 4.86318 32.3328C5.14849 32.8294 5.40586 34.6905 5.62295 35.41C6.61853 38.7222 8.1228 41.8329 10.3495 44.4598C10.6875 44.8598 12.0493 46.0412 12.1708 46.3269C12.3011 46.6309 12.2166 47.1339 12.3593 47.4812C12.2945 47.541 11.3362 46.9135 11.1874 46.8143C5.10511 42.7325 -0.294693 34.2341 0.018456 26.6072C0.0246594 26.4521 -0.0777381 26.1289 0.142479 26.16ZM6.44131 33.6111C8.82958 35.3046 11.5631 36.3003 14.246 37.3982C13.2845 39.5662 12.6043 41.9017 12.3593 44.2713C12.0652 44.3547 12.1456 44.193 12.0712 44.1062C9.50321 41.166 7.347 37.4445 6.44131 33.6111ZM30.121 20.6394C35.9924 22.4198 41.9943 24.9971 46.4823 29.3269C46.5692 29.8294 42.6977 32.5035 42.0712 32.8943C36.6123 36.3154 30.3654 37.8386 23.9481 37.5935L23.9462 37.5516C23.9564 37.3794 24.2432 37.4685 24.3856 37.4627C24.8044 37.4472 25.2267 37.4875 25.6454 37.4627C32.385 37.0253 39.0252 34.1596 43.5907 29.0516C39.509 25.7887 34.6487 23.5833 29.745 21.9178L30.121 20.6394ZM25.456 23.4002C23.0119 27.5936 21.3028 32.271 21.1757 37.2088C19.9476 37.0351 18.7071 36.8271 17.5038 36.5232C17.2991 36.4705 16.9882 36.5289 17.0409 36.2684C17.1465 35.7565 17.7883 34.5041 18.0458 33.9519C19.8509 30.106 22.1122 26.3994 24.3856 22.8543L25.456 23.4002ZM23.8954 22.6932C20.3597 26.595 17.252 30.9748 14.994 35.7791L14.9286 35.7957C14.5278 35.8313 12.8266 35.1337 12.4569 34.991C9.52587 33.8744 6.4738 32.3324 4.30264 30.0154C8.55176 30.7598 12.993 29.1998 16.7304 27.2117C19.2861 25.8532 21.7123 24.1878 23.5702 21.9236L23.8954 22.6932ZM52.1542 22.3084C52.759 26.2351 52.2992 30.1035 51.1454 33.8689C50.8234 33.9215 50.9499 33.8371 50.8817 33.6883C50.7578 33.4123 50.7113 33.0215 50.578 32.7146C50.0539 31.5206 49.344 30.5402 48.6493 29.4578C49.9457 27.6807 51.2324 25.8693 51.8124 23.6922L52.1542 22.3084ZM6.99892 7.92558C7.24085 8.24505 8.28958 8.9933 8.19033 9.3748C8.14827 9.53169 6.50362 11.4275 6.21182 11.865C3.91661 15.3016 2.47124 19.5137 3.04189 23.7195L4.02822 21.1951C5.43637 18.2423 7.02757 15.3203 9.27627 12.9383L10.2187 13.6365C6.68601 17.8206 4.02518 23.3165 4.80361 28.9861C3.73664 28.8869 2.57594 27.95 1.90908 27.1219C-1.9302 22.3391 1.90653 14.653 4.87783 10.3728L6.99892 7.92558ZM44.9149 8.31035C47.5016 10.8195 49.635 14.0173 50.7733 17.491C51.0091 18.2137 51.3319 19.2004 51.3847 19.951C51.5954 22.9781 49.5795 26.2656 47.5604 28.325L45.5038 26.4861C48.9652 21.1328 48.3947 13.937 44.1054 9.25664L44.9149 8.31328V8.31035ZM25.9267 17.3269C27.1983 17.1067 28.5571 17.5316 29.0224 18.8621C29.866 21.2783 27.4437 23.3472 25.1981 22.1189C23.2009 21.0272 23.7032 17.7119 25.9267 17.3269ZM10.4276 9.10136C12.667 7.84543 14.8473 9.88636 14.0067 12.2684L15.1395 13.0838C17.7923 14.9675 20.5702 16.7037 23.5663 17.9412L23.0604 19.2254C19.5463 17.78 16.268 15.6832 13.2284 13.3787C12.208 13.4655 11.8513 13.8902 10.7597 13.4685C8.87076 12.7397 8.65969 10.0908 10.4276 9.10136ZM41.5282 4.07988C45.0919 3.78833 45.3002 9.59724 41.1972 8.4998C40.8746 8.41297 40.6079 8.01606 40.2265 8.27324C36.4331 11.1764 33.0641 14.5881 29.8632 18.1394C29.4942 18.3344 29.0569 17.2804 28.6073 17.2957L28.6044 17.1131C31.8828 13.3415 35.6261 9.99148 39.621 7.02324C39.5683 5.63384 39.9437 4.2104 41.5282 4.07988ZM14.3837 7.86992C20.5807 3.25163 28.5956 0.717214 36.1884 2.82304C37.2957 3.13011 38.3446 3.60198 39.4364 3.94316L38.62 5.33574C30.6643 1.89308 21.2817 4.16884 14.5604 9.31132L13.745 8.49589L14.3837 7.86992ZM20.8944 0.382612C23.9527 -0.138466 26.9278 -0.104237 29.9892 0.345503C30.0165 0.567948 29.7038 0.466466 29.5487 0.472456C28.7082 0.506574 27.8579 0.429033 27.0204 0.472456C20.6558 0.785731 14.7282 3.40034 9.871 7.51933C9.44619 7.60853 8.98714 6.54242 8.58096 6.31914C12.0609 3.34161 16.3816 1.15187 20.8944 0.382612Z" fill="#293E3C"/>
</svg>
