<svg width="136" height="138" viewBox="0 0 136 138" fill="none" xmlns="http://www.w3.org/2000/svg">
<path opacity="0.73" d="M14.2886 49.4157C14.2002 49.6456 14.0642 49.8379 13.8806 49.9924C13.6928 50.1375 13.4822 50.2312 13.2486 50.2734C13.0083 50.313 12.7631 50.2847 12.5129 50.1885C12.2626 50.0923 12.065 49.9503 11.9198 49.7626C11.7746 49.5748 11.6844 49.3655 11.6489 49.1345C11.6094 48.8942 11.6338 48.6591 11.7222 48.4291C11.8105 48.1992 11.9486 48.0117 12.1364 47.8665C12.32 47.712 12.5285 47.6136 12.7621 47.5715C12.9956 47.5293 13.2375 47.5563 13.4877 47.6525C13.7379 47.7487 13.939 47.892 14.0909 48.0823C14.2361 48.2701 14.3285 48.4841 14.368 48.7244C14.4034 48.9554 14.377 49.1858 14.2886 49.4157Z" fill="white"/>
<path opacity="0.73" d="M13.1956 62.1479C13.1146 62.7071 12.9471 63.2319 12.6931 63.7222C12.433 64.2043 12.1392 64.5644 11.8119 64.8025L11.244 64.4018C11.5406 64.1739 11.8107 63.8507 12.0543 63.4321C12.2918 63.0053 12.4464 62.5445 12.518 62.0497C12.5866 61.5765 12.5848 61.1846 12.5126 60.874C12.4343 60.5552 12.3047 60.3131 12.1236 60.1478C11.9436 59.9753 11.7318 59.8714 11.488 59.8361C11.194 59.7936 10.9449 59.8453 10.7407 59.9915C10.5376 60.1304 10.3661 60.3289 10.2263 60.5868C10.0792 60.8437 9.94241 61.1313 9.81577 61.4497C9.68913 61.7682 9.55891 62.086 9.4251 62.4034C9.28412 62.7197 9.11809 63.0068 8.92701 63.2647C8.73698 63.5153 8.50761 63.709 8.2389 63.8458C7.96405 63.9744 7.62586 64.0096 7.22433 63.9515C6.85148 63.8975 6.52491 63.7513 6.24462 63.5131C5.95821 63.2666 5.75138 62.9256 5.62414 62.4898C5.48973 62.0531 5.46874 61.5157 5.56116 60.8775C5.62242 60.4545 5.74412 60.0438 5.92624 59.6456C6.10119 59.2463 6.31444 58.9112 6.566 58.6402L7.16162 59.0009C6.89979 59.2924 6.6922 59.6138 6.53885 59.9649C6.38655 60.3089 6.286 60.6494 6.23719 60.9864C6.17177 61.4381 6.17872 61.8198 6.25804 62.1314C6.33736 62.4431 6.47061 62.6856 6.65777 62.8592C6.83881 63.0245 7.0584 63.1258 7.31653 63.1632C7.61051 63.2058 7.85907 63.1576 8.06221 63.0186C8.26639 62.8725 8.4384 62.6705 8.57824 62.4125C8.71912 62.1474 8.85288 61.8557 8.97952 61.5373C9.10616 61.2189 9.23945 60.9051 9.37939 60.5959C9.52037 60.2796 9.68588 59.9961 9.87592 59.7454C10.0598 59.4865 10.2856 59.2923 10.5533 59.1627C10.822 59.0259 11.1535 58.9861 11.5479 59.0432C11.9136 59.0962 12.2396 59.2459 12.526 59.4923C12.8053 59.7377 13.0116 60.0824 13.145 60.5263C13.2722 60.962 13.2891 61.5025 13.1956 62.1479Z" fill="white"/>
<path opacity="0.73" d="M12.9402 73.65L5.33746 73.9153L5.30941 73.1116L12.217 72.8705L12.0684 68.613L12.7635 68.5887L12.9402 73.65Z" fill="white"/>
<path opacity="0.73" d="M15.3762 85.5221L7.19093 83.7996L7.01676 83.0256L13.675 77.9626L13.8611 78.7896L7.59673 83.4743L7.52516 83.1562L15.1924 84.7058L15.3762 85.5221ZM13.0929 84.6324L12.4042 84.5423L11.4331 80.2271L12.0168 79.8507L13.0929 84.6324Z" fill="white"/>
<path opacity="0.73" d="M17.9701 91.1893C18.2032 91.7121 18.3326 92.2335 18.3583 92.7535C18.3773 93.2765 18.3004 93.771 18.1273 94.2368C17.9543 94.7027 17.6941 95.1242 17.3466 95.5013C16.9962 95.8717 16.5662 96.1706 16.0567 96.3978C15.5472 96.625 15.0376 96.7452 14.5278 96.7583C14.0151 96.7648 13.5276 96.6768 13.0654 96.4942C12.6002 96.305 12.1828 96.0271 11.8131 95.6605C11.4367 95.2968 11.1319 94.8536 10.8988 94.3309C10.6746 93.828 10.5496 93.3166 10.5239 92.7965C10.4917 92.2794 10.5764 91.7934 10.7781 91.3385L11.4526 91.597C11.2884 92.0114 11.2201 92.4186 11.2478 92.8188C11.2689 93.2219 11.368 93.6219 11.5451 94.0189C11.731 94.4358 11.9764 94.7904 12.2813 95.0828C12.5796 95.3782 12.9201 95.5992 13.3028 95.7458C13.6789 95.8954 14.0762 95.9681 14.4948 95.9639C14.9038 95.956 15.3167 95.8591 15.7336 95.6732C16.1504 95.4873 16.5018 95.2434 16.7875 94.9414C17.0638 94.6358 17.2752 94.2916 17.4218 93.9089C17.5619 93.5291 17.625 93.1281 17.6112 92.7059C17.5908 92.2866 17.4877 91.8686 17.3018 91.4517C17.1247 91.0547 16.8933 90.7136 16.6075 90.4286C16.3217 90.1435 15.9698 89.9236 15.5518 89.7689L15.8103 89.0944C16.2835 89.2483 16.7049 89.5086 17.0747 89.8752C17.4444 90.2418 17.7429 90.6798 17.9701 91.1893Z" fill="white"/>
<path opacity="0.73" d="M22.5918 99.7119L16.2171 103.863L15.7783 103.189L22.1529 99.038L22.5918 99.7119Z" fill="white"/>
<path opacity="0.73" d="M27.6586 105.762L22.4594 110.316L24.221 112.327L23.6978 112.786L19.6448 108.159L20.168 107.7L21.9295 109.711L27.1287 105.157L27.6586 105.762Z" fill="white"/>
<path opacity="0.73" d="M35.2521 112.207C36.0203 112.8 36.4547 113.489 36.5551 114.271C36.6555 115.054 36.3713 115.878 35.7024 116.743L33.0382 120.192L32.4018 119.7L35.0461 116.278C35.5953 115.567 35.8401 114.918 35.7804 114.332C35.7206 113.745 35.3984 113.226 34.8135 112.775C34.223 112.318 33.6365 112.135 33.0541 112.226C32.4717 112.316 31.9059 112.716 31.3567 113.427L28.7123 116.85L28.0931 116.372L30.7574 112.923C31.4262 112.057 32.1519 111.574 32.9345 111.474C33.7113 111.369 34.4838 111.613 35.2521 112.207Z" fill="white"/>
<path opacity="0.73" d="M44.3481 122.389L40.7388 120.617L41.0406 120.002L44.6499 121.775L44.3481 122.389ZM45.8174 119.2L41.7107 117.183L42.0173 116.559L46.8458 118.93L43.4924 125.759L38.8101 123.459L39.1167 122.835L43.0771 124.78L45.8174 119.2Z" fill="white"/>
<path opacity="0.73" d="M54.1593 121.068C54.7122 121.216 55.1988 121.444 55.619 121.751C56.0374 122.066 56.3731 122.437 56.6262 122.865C56.8792 123.292 57.0429 123.76 57.1171 124.267C57.1844 124.773 57.1459 125.295 57.0017 125.834C56.8575 126.373 56.6301 126.844 56.3194 127.249C56.0017 127.651 55.6265 127.975 55.1936 128.219C54.7538 128.461 54.2751 128.61 53.7575 128.667C53.238 128.73 52.7018 128.688 52.1489 128.54C51.617 128.398 51.1409 128.173 50.7206 127.866C50.2985 127.565 49.9743 127.194 49.7478 126.75L50.3733 126.389C50.5918 126.778 50.8653 127.087 51.1936 127.317C51.5201 127.555 51.8933 127.729 52.3133 127.842C52.7542 127.96 53.1842 127.992 53.6034 127.94C54.0206 127.894 54.4067 127.768 54.7616 127.563C55.1145 127.365 55.4211 127.102 55.6814 126.774C55.9327 126.452 56.1174 126.07 56.2354 125.629C56.3533 125.188 56.385 124.761 56.3302 124.349C56.2666 123.942 56.1323 123.561 55.9273 123.206C55.7203 122.858 55.4485 122.557 55.1118 122.302C54.7731 122.054 54.3834 121.871 53.9424 121.753C53.5225 121.64 53.1118 121.606 52.7105 121.648C52.3091 121.691 51.9167 121.826 51.5333 122.053L51.1719 121.428C51.5894 121.157 52.0569 120.993 52.5745 120.937C53.0921 120.88 53.6204 120.924 54.1593 121.068Z" fill="white"/>
<path opacity="0.73" d="M69.3059 122.985L65.3564 130.358L64.5646 130.308L61.5726 122.497L62.4186 122.551L65.158 129.878L64.8326 129.857L68.4707 122.932L69.3059 122.985ZM67.8114 124.927L67.5317 125.563L63.1174 125.284L62.9198 124.619L67.8114 124.927Z" fill="white"/>
<path opacity="0.73" d="M78.9832 121.649L80.027 129.184L77.2067 129.575C76.568 129.663 76.0045 129.635 75.5164 129.491C75.0293 129.353 74.6369 129.108 74.3392 128.754C74.0353 128.409 73.8456 127.963 73.77 127.418C73.6965 126.887 73.7584 126.41 73.9559 125.988C74.1472 125.574 74.4581 125.231 74.8886 124.959C75.3201 124.694 75.8551 124.518 76.4938 124.429L78.8729 124.1L78.5683 124.515L78.1866 121.759L78.9832 121.649ZM73.8376 122.362L76.154 124.827L75.2929 124.947L72.9656 122.482L73.8376 122.362ZM78.5594 124.45L78.9668 124.778L76.6093 125.104C75.8558 125.209 75.3081 125.453 74.9663 125.837C74.6173 126.222 74.4841 126.712 74.5666 127.307C74.6501 127.91 74.9121 128.349 75.3526 128.625C75.7858 128.901 76.3792 128.987 77.1328 128.883L79.4903 128.556L79.1872 128.982L78.5594 124.45Z" fill="white"/>
<path opacity="0.73" d="M86.5225 119.347L88.7341 125.895L91.267 125.04L91.4895 125.699L85.6619 127.667L85.4393 127.008L87.9722 126.153L85.7606 119.604L86.5225 119.347Z" fill="white"/>
<path opacity="0.73" d="M95.4065 114.836C96.2516 114.358 97.0543 114.225 97.8144 114.436C98.5746 114.647 99.2239 115.229 99.7623 116.181L101.907 119.975L101.207 120.371L99.0782 116.605C98.6361 115.823 98.1333 115.346 97.5697 115.174C97.0062 115.001 96.4027 115.097 95.7594 115.46C95.1098 115.828 94.7136 116.297 94.5707 116.869C94.4279 117.441 94.5775 118.118 95.0196 118.9L97.1481 122.665L96.4669 123.05L94.3224 119.256C93.784 118.304 93.6204 117.448 93.8315 116.688C94.0363 115.931 94.5613 115.314 95.4065 114.836Z" fill="white"/>
<path opacity="0.73" d="M107.169 105.609L112.25 111.271L111.757 111.714L103.437 110.302L103.696 110.07L108.109 114.987L107.519 115.517L102.438 109.856L102.931 109.413L111.243 110.832L110.984 111.064L106.571 106.147L107.169 105.609Z" fill="white"/>
<path opacity="0.73" d="M117.082 90.7487L123.721 94.4622L123.397 95.0408L115.068 96.3964L115.238 96.0929L121.005 99.3184L120.618 100.011L113.978 96.2973L114.302 95.7187L122.626 94.3725L122.456 94.676L116.689 91.4505L117.082 90.7487Z" fill="white"/>
<path opacity="0.73" d="M119.811 82.2901C119.974 81.7415 120.216 81.2579 120.537 80.8393C120.863 80.4297 121.244 80.1008 121.681 79.8527C122.122 79.6135 122.594 79.4627 123.096 79.4004C123.603 79.347 124.124 79.3998 124.659 79.5588C125.194 79.7177 125.656 79.957 126.044 80.2766C126.438 80.6052 126.751 80.9892 126.983 81.4285C127.22 81.8769 127.36 82.3606 127.402 82.8796C127.451 83.4006 127.393 83.9389 127.228 84.4945C127.065 85.0431 126.821 85.5222 126.495 85.9318C126.176 86.3435 125.799 86.6699 125.365 86.9111C124.928 87.1593 124.457 87.31 123.949 87.3634C123.44 87.4237 122.918 87.3744 122.383 87.2154C121.849 87.0565 121.385 86.8127 120.991 86.4841C120.595 86.1625 120.282 85.7785 120.052 85.3321C119.82 84.8928 119.679 84.4126 119.63 83.8915C119.588 83.3726 119.648 82.8388 119.811 82.2901ZM120.499 82.4945C120.369 82.932 120.322 83.3565 120.358 83.7679C120.4 84.1883 120.516 84.5742 120.706 84.9255C120.901 85.2859 121.157 85.5961 121.472 85.8562C121.795 86.1184 122.175 86.3145 122.613 86.4446C123.05 86.5746 123.472 86.6169 123.879 86.5714C124.292 86.528 124.676 86.4077 125.029 86.2104C125.387 86.0221 125.695 85.7621 125.952 85.4304C126.215 85.1078 126.411 84.7277 126.541 84.2902C126.671 83.8526 126.715 83.4237 126.674 83.0032C126.639 82.5849 126.525 82.1955 126.329 81.8351C126.139 81.4838 125.884 81.1736 125.563 80.9044C125.247 80.6443 124.871 80.4492 124.433 80.3192C124.002 80.1912 123.58 80.149 123.167 80.1924C122.751 80.2427 122.364 80.362 122.006 80.5503C121.653 80.7476 121.344 81.011 121.08 81.3407C120.822 81.6723 120.629 82.0569 120.499 82.4945Z" fill="white"/>
<path opacity="0.73" d="M121.806 72.784L129.357 73.7104L129.259 74.5086L121.708 73.5822L121.806 72.784Z" fill="white"/>
<path opacity="0.73" d="M121.69 65.072C121.672 64.5072 121.746 63.9612 121.91 63.4342C122.083 62.9142 122.309 62.5085 122.59 62.217L123.219 62.5128C122.967 62.7888 122.757 63.1542 122.59 63.6088C122.43 64.0704 122.358 64.551 122.374 65.0507C122.389 65.5287 122.459 65.9143 122.584 66.2076C122.716 66.5079 122.886 66.7237 123.093 66.855C123.3 66.9935 123.527 67.0589 123.773 67.0513C124.07 67.0421 124.307 66.9477 124.482 66.7683C124.658 66.5961 124.792 66.3708 124.885 66.0925C124.985 65.814 125.07 65.5069 125.139 65.1713C125.209 64.8357 125.282 64.5 125.358 64.1642C125.442 63.8281 125.555 63.5166 125.699 63.2294C125.842 62.9495 126.034 62.7188 126.275 62.5374C126.523 62.3629 126.85 62.2694 127.256 62.2568C127.632 62.2451 127.979 62.3321 128.297 62.518C128.622 62.7108 128.885 63.0107 129.086 63.4176C129.294 63.8243 129.409 64.3499 129.429 64.9944C129.442 65.4217 129.393 65.8472 129.283 66.271C129.181 66.6947 129.029 67.0618 128.828 67.3725L128.179 67.1209C128.386 66.7882 128.535 66.4357 128.625 66.0632C128.715 65.698 128.754 65.3452 128.744 65.0048C128.73 64.5486 128.656 64.174 128.524 63.8809C128.392 63.5878 128.218 63.3721 128.004 63.2338C127.797 63.1025 127.563 63.041 127.302 63.0491C127.005 63.0583 126.769 63.149 126.593 63.3212C126.417 63.5006 126.283 63.7295 126.19 64.0078C126.098 64.2934 126.017 64.604 125.948 64.9396C125.878 65.2752 125.802 65.6074 125.718 65.9362C125.634 66.2722 125.52 66.5802 125.377 66.8601C125.241 67.147 125.052 67.3776 124.811 67.5518C124.57 67.7332 124.251 67.8302 123.852 67.8425C123.483 67.854 123.136 67.7633 122.811 67.5705C122.493 67.3774 122.23 67.0739 122.022 66.66C121.82 66.2531 121.71 65.7237 121.69 65.072Z" fill="white"/>
<path opacity="0.73" d="M120.736 56.6288L128.224 55.2863L128.366 56.0779L120.878 57.4204L120.736 56.6288Z" fill="white"/>
<path opacity="0.73" d="M118.327 49.3941C118.136 48.8543 118.049 48.3242 118.066 47.8037C118.089 47.2809 118.205 46.7942 118.415 46.3438C118.625 45.8933 118.918 45.4941 119.295 45.1462C119.674 44.8051 120.127 44.5418 120.653 44.3563C121.179 44.1707 121.696 44.0919 122.206 44.1198C122.717 44.1544 123.196 44.2814 123.642 44.5005C124.09 44.7265 124.484 45.0371 124.823 45.4322C125.169 45.8249 125.437 46.2912 125.628 46.831C125.811 47.3502 125.894 47.8701 125.878 48.3905C125.869 48.9086 125.745 49.3862 125.508 49.8234L124.856 49.5115C125.053 49.1117 125.154 48.7112 125.158 48.3102C125.17 47.9067 125.103 47.5 124.959 47.09C124.807 46.6595 124.591 46.2863 124.31 45.9704C124.037 45.652 123.715 45.4044 123.345 45.2274C122.982 45.0481 122.592 44.9437 122.175 44.9143C121.766 44.8892 121.347 44.9526 120.916 45.1044C120.486 45.2562 120.116 45.4711 119.807 45.7492C119.507 46.0316 119.269 46.3577 119.092 46.7274C118.922 47.0946 118.827 47.4893 118.806 47.9112C118.793 48.3308 118.862 48.7558 119.014 49.1863C119.159 49.5962 119.362 49.9548 119.624 50.2619C119.886 50.569 120.219 50.8164 120.623 51.0042L120.311 51.6558C119.852 51.4644 119.453 51.1711 119.114 50.7759C118.775 50.3808 118.512 49.9202 118.327 49.3941Z" fill="white"/>
<path opacity="0.73" d="M116.222 35.6922L118.263 39.1565L117.673 39.5041L115.632 36.0398L116.222 35.6922ZM113.242 37.5492L115.564 41.491L114.965 41.8441L112.234 37.2095L118.788 33.3473L121.436 37.8415L120.837 38.1946L118.597 34.3933L113.242 37.5492Z" fill="white"/>
<path opacity="0.73" d="M105.121 28.8657L110.8 23.8044L112.695 25.9301C113.124 26.4115 113.414 26.8952 113.566 27.3812C113.723 27.8623 113.737 28.325 113.609 28.7692C113.491 29.2139 113.226 29.6195 112.815 29.9858C112.415 30.3425 111.984 30.5564 111.524 30.6274C111.073 30.6989 110.615 30.6315 110.15 30.4251C109.69 30.2139 109.245 29.8676 108.816 29.3862L107.218 27.5932L107.733 27.6151L105.656 29.4661L105.121 28.8657ZM108.577 32.7439L109.336 29.447L109.915 30.096L109.163 33.4011L108.577 32.7439ZM107.684 27.6585L107.73 27.1377L109.313 28.9145C109.819 29.4824 110.327 29.8016 110.836 29.8719C111.35 29.9477 111.831 29.7855 112.28 29.3854C112.735 28.9805 112.954 28.5185 112.937 27.9993C112.926 27.4855 112.667 26.9446 112.161 26.3766L110.577 24.5998L111.1 24.6145L107.684 27.6585Z" fill="white"/>
<path opacity="0.73" d="M96.6246 22.192L101.186 16.1041L103.465 17.8114C103.981 18.1981 104.361 18.6145 104.607 19.0607C104.856 19.5011 104.962 19.9517 104.924 20.4125C104.897 20.8718 104.718 21.3218 104.388 21.7625C104.067 22.1915 103.687 22.4866 103.25 22.6476C102.822 22.8072 102.36 22.832 101.863 22.7221C101.366 22.6122 100.859 22.364 100.343 21.9773L98.4214 20.5371L98.9364 20.4478L97.2682 22.6742L96.6246 22.192ZM98.8973 20.4999L98.8449 19.9718L100.75 21.399C101.358 21.8551 101.917 22.0701 102.426 22.0437C102.944 22.016 103.384 21.7615 103.745 21.2802C104.11 20.7932 104.233 20.2969 104.113 19.7912C104 19.2899 103.639 18.8112 103.03 18.355L101.126 16.9279L101.641 16.8385L98.8973 20.4999Z" fill="white"/>
<path opacity="0.73" d="M84.6149 14.7477C84.3839 14.6622 84.19 14.5287 84.0331 14.3471C83.8856 14.1612 83.7893 13.9517 83.7441 13.7187C83.7015 13.479 83.7267 13.2334 83.8197 12.9819C83.9127 12.7305 84.0521 12.531 84.238 12.3835C84.4239 12.236 84.6321 12.143 84.8626 12.1047C85.1024 12.0621 85.3378 12.0835 85.5688 12.169C85.7999 12.2544 85.9891 12.3901 86.1367 12.576C86.2935 12.7576 86.3945 12.9649 86.4396 13.1979C86.4848 13.4309 86.4609 13.6731 86.3679 13.9245C86.2749 14.1759 86.1341 14.3788 85.9457 14.5331C85.7598 14.6807 85.547 14.7757 85.3072 14.8184C85.0767 14.8567 84.846 14.8332 84.6149 14.7477Z" fill="white"/>
<path opacity="0.73" d="M64.9083 13.5918L68.7909 6.20831L70.1794 6.29348L73.1413 14.0968L71.6661 14.0063L69.1463 6.98139L69.7104 7.01599L66.3618 13.6809L64.9083 13.5918ZM66.5889 11.931L67.0364 10.8479L71.1367 11.0994L71.4485 12.2291L66.5889 11.931Z" fill="white"/>
<path opacity="0.73" d="M54.8674 14.9884L57.44 10.1793L57.5856 11.2343L53.978 7.43172L55.5605 7.2133L58.2414 10.0248L57.597 10.1247L59.3931 6.68433L60.911 6.47482L58.4795 11.0341L58.3398 10.0222L62.1449 13.984L60.5301 14.2068L57.704 11.2179L58.3392 11.1303L56.4607 14.7685L54.8674 14.9884Z" fill="white"/>
<path opacity="0.73" d="M45.7613 13.365L49.3427 12.1498L49.7164 13.251L46.135 14.4662L45.7613 13.365ZM46.9119 16.4175L50.9769 15.0381L51.3576 16.1599L45.9546 17.9932L43.5102 10.7893L48.7691 9.00487L49.1497 10.1266L45.2287 11.4571L46.9119 16.4175Z" fill="white"/>
<path opacity="0.73" d="M36.0058 23.516L32.1972 16.9307L35.2829 15.1461C36.0732 14.6891 36.7659 14.4977 37.3612 14.5719C37.9529 14.6398 38.3992 14.934 38.7003 15.4546C38.9034 15.8058 38.996 16.154 38.978 16.4992C38.9564 16.8381 38.8475 17.1563 38.6514 17.4539C38.4579 17.7416 38.2012 17.9779 37.8813 18.1629L37.8548 17.7263C38.2248 17.5123 38.5971 17.389 38.9717 17.3565C39.3426 17.3177 39.6871 17.378 40.0052 17.5372C40.3295 17.6927 40.6023 17.9618 40.8236 18.3444C41.15 18.9089 41.1875 19.473 40.9361 20.0369C40.6848 20.6007 40.1326 21.1293 39.2796 21.6226L36.0058 23.516ZM36.6738 21.8491L38.6494 20.7066C39.1073 20.4418 39.4149 20.1634 39.5725 19.8714C39.73 19.5794 39.7127 19.2672 39.5204 18.9348C39.3318 18.6087 39.0717 18.4411 38.74 18.4321C38.4048 18.4167 38.0082 18.5415 37.5504 18.8062L35.4807 20.0032L34.9312 19.0531L36.7563 17.9975C37.1827 17.7509 37.4653 17.487 37.6041 17.2059C37.7491 16.9212 37.7345 16.6283 37.5604 16.3273C37.3827 16.0199 37.1342 15.8581 36.8151 15.8418C36.5023 15.8219 36.1326 15.9352 35.7062 16.1819L33.9752 17.183L36.6738 21.8491Z" fill="white"/>
<path opacity="0.73" d="M29.6948 29.0765C28.9207 29.7759 28.1165 30.1071 27.2823 30.0699C26.4534 30.0278 25.6674 29.5956 24.9243 28.7731L22.0465 25.5878L23.0948 24.6407L25.9362 27.7856C26.4607 28.3662 26.9656 28.6765 27.4509 28.7165C27.9416 28.7517 28.4154 28.5628 28.8723 28.15C29.3293 27.7371 29.5624 27.2873 29.5717 26.8004C29.581 26.3136 29.3234 25.7799 28.7988 25.1993L25.9575 22.0543L26.9897 21.1218L29.8674 24.307C30.6106 25.1296 30.9584 25.9577 30.911 26.7914C30.869 27.6203 30.4636 28.382 29.6948 29.0765Z" fill="white"/>
<path opacity="0.73" d="M22.7233 37.1806C22.3831 37.6499 21.99 38.0316 21.5441 38.3258C21.0966 38.6099 20.6236 38.7995 20.1252 38.8945C19.6251 38.9794 19.122 38.9637 18.6158 38.8473C18.1096 38.7309 17.6277 38.5069 17.1701 38.1752C16.7126 37.8435 16.3498 37.4552 16.0817 37.0103C15.8136 36.5654 15.6472 36.0914 15.5825 35.5881C15.5119 35.0806 15.545 34.5721 15.6816 34.0626C15.8124 33.5489 16.05 33.0545 16.3944 32.5794C16.7601 32.0749 17.1819 31.6782 17.6598 31.3893C18.1318 31.0961 18.6421 30.9291 19.1907 30.8883L19.35 32.1314C18.948 32.1799 18.5883 32.2995 18.2711 32.4902C17.9481 32.6766 17.6696 32.9311 17.4358 33.2537C17.2019 33.5763 17.04 33.9109 16.9499 34.2572C16.8642 34.5977 16.8458 34.9379 16.8948 35.2776C16.948 35.6115 17.0663 35.9299 17.2494 36.2327C17.4369 36.5296 17.689 36.7929 18.0057 37.0225C18.3225 37.2522 18.6511 37.4098 18.9916 37.4956C19.3364 37.5755 19.6757 37.5888 20.0096 37.5356C20.3478 37.4765 20.6653 37.3532 20.9622 37.1658C21.2634 36.9725 21.531 36.7145 21.7648 36.3919C21.9987 36.0693 22.1569 35.7276 22.2395 35.3668C22.3161 35.0018 22.3121 34.6186 22.2273 34.2171L23.467 33.9882C23.593 34.5181 23.593 35.055 23.4671 35.599C23.3412 36.1431 23.0932 36.6703 22.7233 37.1806Z" fill="white"/>
<path d="M54.9676 83.7194C55.3359 83.4587 57.4624 84.225 58.0546 84.363C59.068 84.5969 60.0965 84.82 61.1327 84.9235C61.6529 91.9053 66.2574 97.6257 72.9989 98.9792L75.3182 99.3659C67.0088 101.536 58.4413 99.4005 52.121 93.4997C51.8375 92.9905 54.4658 84.0797 54.9676 83.7194ZM54.3153 97.2683L55.5946 97.9353L55.5917 97.9392C55.622 98.2421 55.2796 98.0662 55.1278 98.0202C53.9778 97.6713 52.9418 96.7661 51.7577 96.49L51.7421 95.5544L54.3153 97.2683ZM93.1346 74.5847C93.3356 74.5618 93.4458 74.6194 93.5975 74.7419C93.9884 75.0601 94.9596 76.6625 95.2294 77.1882C95.9354 78.5607 96.5997 80.497 96.2089 82.0612C96.0039 82.8817 94.6185 85.121 94.0946 85.9148C91.111 90.4543 85.6868 95.4424 80.5243 97.0222C72.1502 99.5834 64.1555 93.9894 62.9901 85.2321C73.9227 86.3977 85.3414 82.5329 93.1346 74.5847ZM35.245 69.0368C35.5373 70.2791 36.531 71.8558 37.4003 72.7722C37.7799 73.1747 38.1982 73.2971 38.4374 73.531C38.6954 73.7804 38.9569 74.4858 39.2567 74.8308C39.6135 75.241 40.8477 76.361 41.0223 76.6677C41.3714 77.2817 41.6864 79.5809 41.952 80.4704C43.1705 84.5653 45.0116 88.4114 47.7372 91.6589C48.1508 92.1533 49.8167 93.6132 49.9657 93.9665C50.1251 94.3423 50.0225 94.9638 50.1971 95.3933C50.1212 95.4698 48.9457 94.6923 48.7626 94.5691C41.3186 89.5233 34.7093 79.0177 35.0926 69.5896C35.1002 69.3979 34.9755 68.9985 35.245 69.0368ZM42.9569 78.2468C45.8798 80.3402 49.2241 81.5711 52.5077 82.9284C51.3309 85.6085 50.5 88.4962 50.2001 91.4255C49.8394 91.529 49.9377 91.3288 49.8466 91.2214C46.7036 87.5867 44.0653 82.9857 42.9569 78.2468ZM71.9315 62.2126C79.1174 64.4134 86.4631 67.5994 91.9559 72.9519C92.062 73.5731 87.3243 76.878 86.5575 77.361C79.8766 81.59 72.2316 83.4725 64.3778 83.1696L64.3749 83.1189C64.3868 82.9053 64.7386 83.0157 64.913 83.0085C65.4253 82.9894 65.9416 83.0392 66.454 83.0085C74.7026 82.4679 82.8301 78.9258 88.4178 72.611C83.4223 68.5775 77.474 65.8506 71.4725 63.7917L71.9315 62.2126ZM66.2235 65.6247C63.2322 70.8085 61.1409 76.591 60.9852 82.695C59.4821 82.4803 57.9638 82.2231 56.4911 81.8474C56.2406 81.7822 55.8602 81.8549 55.9247 81.5329C56.0537 80.9003 56.8401 79.3511 57.1551 78.6687C59.3644 73.9144 62.1315 69.3323 64.9139 64.9499L66.2235 65.6247ZM64.3133 64.7497C59.9859 69.5731 56.1823 74.9874 53.4188 80.9265L53.3827 80.9401C52.9894 81.0502 50.7803 80.1339 50.3133 79.9519C46.7263 78.5716 42.991 76.6664 40.3339 73.8025C45.5344 74.7226 50.9706 72.7933 55.5448 70.3357C58.6726 68.6563 61.6412 66.5974 63.9149 63.7985L64.3133 64.7497ZM98.8983 64.2751C99.6385 69.1291 99.077 73.9105 97.6649 78.5651C97.2705 78.6303 97.426 78.5264 97.3426 78.3425C97.1908 78.0013 97.1338 77.518 96.9706 77.1384C96.3291 75.6623 95.4595 74.451 94.6092 73.113C96.196 70.9161 97.7714 68.6766 98.4813 65.9851L98.8983 64.2751ZM43.6356 46.4968C43.9317 46.8917 45.2151 47.8162 45.0936 48.2878C45.0433 48.4805 43.0285 50.8264 42.6717 51.3669C39.8629 55.615 38.0936 60.8214 38.7919 66.0202L39.9989 62.9001C41.7223 59.2501 43.6697 55.6377 46.4217 52.6931L47.576 53.5554C43.2524 58.7276 39.9954 65.5222 40.9481 72.531C39.6423 72.4082 38.2222 71.25 37.4061 70.2263C32.7073 64.314 37.4024 54.8132 41.0389 49.5222L43.6356 46.4968ZM90.0399 46.9704C93.2058 50.0722 95.8167 54.0258 97.2098 58.32C97.4983 59.2133 97.8933 60.4323 97.9579 61.3601C98.216 65.1022 95.7484 69.1667 93.2772 71.7126L90.7606 69.4392C94.997 62.8215 94.2985 53.9261 89.0487 48.1403L90.0399 46.9743V46.9704ZM66.7987 58.1179C68.3551 57.8457 70.0184 58.3705 70.5878 60.0153C71.6203 63.0021 68.6554 65.5598 65.9071 64.0417C63.4626 62.6922 64.0774 58.5937 66.7987 58.1179ZM47.8319 47.9489C50.5726 46.3961 53.2415 48.9193 52.2128 51.864L53.5985 52.8718C56.8452 55.2005 60.245 57.3468 63.912 58.8767L63.2928 60.4636C58.9921 58.6769 54.9796 56.0847 51.2596 53.236C50.0108 53.3434 49.5743 53.8688 48.2382 53.3474C45.9264 52.4463 45.6682 49.172 47.8319 47.9489ZM85.8964 41.7419C90.2577 41.3819 90.512 48.5628 85.4901 47.2058C85.0954 47.0984 84.7685 46.6075 84.3016 46.9255C79.6591 50.5143 75.5365 54.7326 71.619 59.1228C71.1674 59.3636 70.6322 58.0608 70.0819 58.0798L70.078 57.8532C74.0904 53.1909 78.6721 49.0499 83.5614 45.3806C83.4969 43.6629 83.9567 41.9029 85.8964 41.7419ZM52.6747 46.4275C60.2591 40.7184 70.0676 37.5859 79.3602 40.1892C80.7154 40.5687 81.9987 41.1512 83.3348 41.573L82.3368 43.2946C72.5999 39.0387 61.1165 41.8526 52.8905 48.2097L51.8925 47.2019L52.6747 46.4275ZM60.6425 37.1716C64.3853 36.5275 68.0256 36.5697 71.7723 37.1257C71.8061 37.4012 71.423 37.2753 71.2333 37.2829C70.2046 37.3251 69.1644 37.2292 68.1395 37.2829C60.3501 37.6702 53.0958 40.9021 47.1512 45.9939C46.6312 46.1049 46.0694 44.7855 45.5721 44.5095C49.8313 40.8288 55.1193 38.1224 60.6425 37.1716Z" fill="white"/>
</svg>
