<svg width="129" height="26" viewBox="0 0 129 26" fill="none" xmlns="http://www.w3.org/2000/svg">
<g opacity="0.5">
<path d="M36.6835 17.631L33.0686 9.01123H29.8687L35.095 21.2001H38.1549L43.3813 9.01123H40.4054L36.6835 17.631Z" fill="white"/>
<path d="M47.6831 4.19542C47.3165 3.86957 46.8583 3.7041 46.3186 3.7041C45.7789 3.7041 45.3207 3.87721 44.9516 4.22088C44.5824 4.5671 44.394 5.00241 44.394 5.51665C44.394 6.03088 44.5824 6.4662 44.9516 6.81241C45.3181 7.15608 45.7789 7.32919 46.3186 7.32919C46.8583 7.32919 47.3394 7.1459 47.6984 6.78696C48.0573 6.42801 48.2406 5.97742 48.2406 5.45046C48.2406 4.92349 48.0522 4.52891 47.6806 4.19797L47.6831 4.19542Z" fill="white"/>
<path d="M47.838 9.01123H44.7729V21.2001H47.838V9.01123Z" fill="white"/>
<path d="M57.1855 18.3218C56.796 18.6273 56.2996 18.7826 55.709 18.7826C55.2228 18.7826 54.8588 18.6477 54.594 18.3676C54.3318 18.0902 54.1969 17.6778 54.1969 17.1355V11.6088H57.3867V9.10125H54.1969V6.37988H51.1318V17.2043C51.1318 18.5458 51.5061 19.5845 52.2443 20.2947C52.9826 21.0025 54.0339 21.3589 55.373 21.3589C55.905 21.3589 56.4167 21.2901 56.8953 21.1527C57.379 21.0152 57.7991 20.8039 58.1376 20.5239L58.2166 20.4602L57.3306 18.2073L57.1855 18.3218Z" fill="white"/>
<path d="M68.6652 10.2613C68.2299 9.84637 67.7284 9.52053 67.1735 9.28887C66.5116 9.01648 65.7784 8.87646 64.9892 8.87646C63.8106 8.87646 62.7414 9.13867 61.8096 9.6529C60.8754 10.1697 60.1371 10.9028 59.6152 11.8371C59.0934 12.7689 58.8286 13.8686 58.8286 15.1058C58.8286 16.343 59.0934 17.4479 59.6152 18.3847C60.1397 19.3266 60.8779 20.0649 61.8096 20.5791C62.7414 21.0933 63.8106 21.3555 64.9892 21.3555C65.8217 21.3555 66.593 21.2104 67.2855 20.9202C67.8659 20.6784 68.3725 20.3322 68.8002 19.8867V21.2002H71.7328V9.01139H68.6678V10.2613H68.6652ZM67.7462 12.5041C68.3852 13.1584 68.7111 14.0341 68.7111 15.1058C68.7111 16.1776 68.3878 17.0533 67.7462 17.7075C67.1073 18.3618 66.285 18.6927 65.3024 18.6927C64.3197 18.6927 63.5 18.3618 62.8687 17.7075C62.2348 17.0533 61.914 16.1776 61.914 15.1033C61.914 14.029 62.2348 13.1533 62.8687 12.499C63.5 11.8473 64.3197 11.5138 65.3024 11.5138C66.285 11.5138 67.1073 11.8448 67.7462 12.499V12.5041Z" fill="white"/>
<path d="M82.1436 14.4617C81.5301 14.2682 80.7333 14.0925 79.7837 13.9449C78.8469 13.7845 78.1468 13.6114 77.7039 13.4281C77.3042 13.2652 77.1107 12.9953 77.1107 12.6084C77.1107 12.2571 77.2966 11.9796 77.6784 11.7581C78.0781 11.5264 78.6814 11.4093 79.4706 11.4093C80.7027 11.4093 81.8279 11.7021 82.8131 12.2825L82.9404 12.3563L84.1369 9.99138L84.0274 9.9252C83.4979 9.60698 82.808 9.34987 81.9781 9.16148C81.1533 8.9731 80.3183 8.87891 79.4935 8.87891C77.8643 8.87891 76.5507 9.23021 75.5858 9.9201C74.6083 10.6202 74.1119 11.5697 74.1119 12.7433C74.1119 13.6394 74.3537 14.3496 74.8298 14.8562C75.2982 15.3552 75.8582 15.7091 76.4947 15.9076C77.1158 16.1036 77.9304 16.2767 78.9131 16.4244C79.8372 16.5721 80.5143 16.7273 80.9267 16.8852C81.2959 17.0277 81.4741 17.2696 81.4741 17.626C81.4741 18.4177 80.7027 18.8046 79.1142 18.8046C78.4014 18.8046 77.6682 18.6977 76.9325 18.4864C76.1994 18.2751 75.5629 17.9926 75.0411 17.6463L74.9112 17.5598L73.7173 19.9248L73.814 19.9935C74.3741 20.3881 75.1327 20.7165 76.0644 20.9736C76.9936 21.2282 77.961 21.358 78.9335 21.358C80.6187 21.358 81.9756 21.0118 82.9608 20.3295C83.9638 19.6371 84.4704 18.6977 84.4704 17.5394C84.4704 16.6586 84.2362 15.9662 83.7728 15.4799C83.3197 15.0039 82.7698 14.6628 82.141 14.4617H82.1436Z" fill="white"/>
<path d="M95.4583 10.2613C95.023 9.84637 94.5215 9.52053 93.964 9.28887C93.3021 9.01648 92.5689 8.87646 91.7798 8.87646C90.6011 8.87646 89.5319 9.13867 88.6002 9.6529C87.6659 10.1697 86.9276 10.9028 86.4058 11.8371C85.8839 12.7689 85.6191 13.8686 85.6191 15.1058C85.6191 16.343 85.8839 17.4479 86.4058 18.3847C86.9302 19.3266 87.6684 20.0649 88.6002 20.5791C89.5319 21.0933 90.6011 21.3555 91.7798 21.3555C92.6122 21.3555 93.3836 21.2104 94.076 20.9202C94.6564 20.6784 95.163 20.3322 95.5907 19.8867V21.2002H98.5234V9.01139H95.4583V10.2613ZM94.5368 12.5041C95.1757 13.1584 95.5016 14.0341 95.5016 15.1058C95.5016 16.1776 95.1783 17.0533 94.5368 17.7075C93.8978 18.3618 93.0755 18.6927 92.0929 18.6927C91.1102 18.6927 90.2905 18.3618 89.6592 17.7075C89.0253 17.0533 88.7045 16.1776 88.7045 15.1033C88.7045 14.029 89.0253 13.1533 89.6592 12.499C90.2905 11.8473 91.1102 11.5138 92.0929 11.5138C93.0755 11.5138 93.8978 11.8448 94.5368 12.499V12.5041Z" fill="white"/>
<path d="M111.075 10.3707C110.632 9.90992 110.1 9.55607 109.491 9.31168C108.771 9.02401 107.961 8.87891 107.085 8.87891C105.937 8.87891 104.886 9.12329 103.954 9.60952C103.02 10.0958 102.274 10.7933 101.737 11.6792C101.197 12.5676 100.925 13.6012 100.925 14.7519C100.925 15.9025 101.197 16.9412 101.737 17.8347C102.274 18.7308 103.022 19.4334 103.954 19.9273C104.883 20.4186 105.937 20.6681 107.085 20.6681C107.918 20.6681 108.692 20.5306 109.389 20.2582C109.98 20.0266 110.499 19.7007 110.94 19.2858V19.5734C110.94 20.7496 110.647 21.6304 110.066 22.1955C109.486 22.7607 108.549 23.0483 107.287 23.0483C106.487 23.0483 105.688 22.9185 104.909 22.6639C104.132 22.4094 103.483 22.0708 102.979 21.6507L102.854 21.5464L101.462 23.8833L101.554 23.9597C102.236 24.5198 103.106 24.9525 104.148 25.2453C105.181 25.538 106.291 25.6857 107.442 25.6857C111.798 25.6857 114.005 23.5218 114.005 19.2552V9.01129H111.072V10.3707H111.075ZM110.013 12.4174C110.657 13.0131 110.983 13.7947 110.983 14.7468C110.983 15.6989 110.657 16.5084 110.013 17.1117C109.366 17.7151 108.524 18.0231 107.508 18.0231C106.492 18.0231 105.627 17.7176 104.98 17.1117C104.336 16.5109 104.01 15.7141 104.01 14.7468C104.01 13.7794 104.336 13.0106 104.98 12.4174C105.627 11.8192 106.477 11.5163 107.508 11.5163C108.539 11.5163 109.366 11.8192 110.013 12.4174Z" fill="white"/>
<path d="M128.839 14.9709C128.839 13.7464 128.562 12.6619 128.017 11.7429C127.472 10.8265 126.721 10.1086 125.787 9.61726C124.855 9.12594 123.809 8.87646 122.676 8.87646C121.482 8.87646 120.398 9.14631 119.451 9.67581C118.504 10.2079 117.75 10.9563 117.21 11.9033C116.673 12.8503 116.401 13.9272 116.401 15.1058C116.401 16.2845 116.681 17.3868 117.233 18.3312C117.786 19.2782 118.583 20.0292 119.598 20.5587C120.609 21.0882 121.795 21.3555 123.119 21.3555C124.158 21.3555 125.107 21.1875 125.937 20.854C126.772 20.5205 127.467 20.019 128.002 19.3622L128.076 19.2732L126.431 17.3537L126.324 17.4606C125.492 18.2931 124.438 18.7131 123.188 18.7131C122.337 18.7131 121.604 18.54 121.004 18.1963C120.456 17.8832 120.044 17.4351 119.771 16.8573L128.837 15.0829V14.9684L128.839 14.9709ZM120.293 12.3463C120.894 11.7098 121.699 11.3865 122.681 11.3865C123.478 11.3865 124.168 11.6029 124.728 12.028C125.25 12.4226 125.611 12.942 125.807 13.5733L119.384 14.808C119.41 13.7871 119.715 12.9598 120.293 12.3488V12.3463Z" fill="white"/>
<path d="M25.6614 5.55186C25.6614 5.55186 25.7531 7.12002 20.7711 13.856C17.7748 17.9062 16.95 20.9 16.7642 22.6438C23.6096 21.4626 25.0148 12.5627 25.0148 12.5627C23.8463 23.7562 16.8049 24.4079 16.8049 24.4079C31.29 27.305 25.6614 5.54932 25.6614 5.54932V5.55186Z" fill="white"/>
<path d="M12.9272 0.0025482C12.9272 0.0025482 13.7062 1.11757 13.0825 8.3423C12.7083 12.6878 13.4542 15.2717 14.1085 16.6413C18.6245 12.6675 15.6282 5.46564 15.6282 5.46564C19.8389 14.2534 14.9384 17.9244 14.9384 17.9244C26.9363 13.4999 12.9272 0 12.9272 0V0.0025482Z" fill="white"/>
<path d="M4.44298 4.9917C4.44298 4.9917 5.28051 5.60013 6.63229 10.9588C7.44437 14.1817 8.62813 15.8543 9.44021 16.6791C11.7008 12.6925 7.74731 8.2553 7.74731 8.2553C12.9686 13.5326 10.3567 17.3995 10.3567 17.3995C17.892 11.2236 4.44043 4.99425 4.44043 4.99425L4.44298 4.9917Z" fill="white"/>
<path d="M0 11.9038C0 11.9038 0.738257 12.1253 3.00394 15.5595C4.3659 17.624 5.60566 18.5099 6.37955 18.8892C6.99052 15.534 3.12359 13.3854 3.12359 13.3854C8.08773 15.814 7.19927 19.1693 7.19927 19.1693C10.9797 12.9806 0 11.9038 0 11.9038Z" fill="white"/>
<path d="M11.9006 24.6761C13.7325 24.6761 15.2176 23.191 15.2176 21.3591C15.2176 19.5271 13.7325 18.042 11.9006 18.042C10.0686 18.042 8.5835 19.5271 8.5835 21.3591C8.5835 23.191 10.0686 24.6761 11.9006 24.6761Z" fill="white"/>
</g>
</svg>
