<svg width="119" height="25" viewBox="0 0 119 25" fill="none" xmlns="http://www.w3.org/2000/svg">
<g opacity="0.5">
<path d="M7.58677 18.2912C7.7271 18.1899 8.53732 18.4873 8.76352 18.5412C9.14988 18.6322 9.54231 18.7187 9.93735 18.759C10.1356 21.4749 11.8914 23.7002 14.4618 24.2268L15.3465 24.3772C12.1784 25.2213 8.91162 24.3911 6.50181 22.0959C6.39332 21.8992 7.39485 18.4339 7.58677 18.2912ZM7.33872 23.5617L7.82602 23.8205L7.82505 23.8225C7.83654 23.9401 7.70623 23.8717 7.64829 23.8537C7.20984 23.718 6.81459 23.3665 6.36313 23.259L6.35727 22.8947L7.33872 23.5617ZM22.1395 14.7385C22.2162 14.7295 22.2584 14.7514 22.3163 14.799C22.4653 14.9228 22.8356 15.5469 22.9383 15.7512C23.2075 16.2851 23.4604 17.0382 23.3114 17.6467C23.2331 17.966 22.7054 18.837 22.5057 19.1457C21.3682 20.9114 19.3001 22.8514 17.3319 23.466C14.139 24.4623 11.0907 22.2866 10.6463 18.8801C14.8146 19.3334 19.1681 17.8302 22.1395 14.7385ZM0.0662585 12.5793C0.177704 13.0625 0.557083 13.676 0.888524 14.0324C1.03325 14.189 1.19285 14.2364 1.28403 14.3274C1.38245 14.4243 1.48219 14.699 1.59653 14.8332C1.73263 14.9928 2.20281 15.4288 2.26938 15.5481C2.40248 15.7871 2.5226 16.6817 2.62388 17.0276C3.08847 18.6203 3.79079 20.1159 4.82993 21.3791C4.98769 21.5715 5.62309 22.1403 5.67954 22.2776C5.74012 22.4238 5.70091 22.6653 5.76743 22.8322C5.73739 22.8611 5.28993 22.5586 5.22056 22.511C2.38235 20.5482 -0.137539 16.4616 0.00864134 12.7942C0.0113424 12.7195 -0.0360361 12.5647 0.0662585 12.5793ZM3.00571 16.1623C4.12017 16.9767 5.39536 17.4556 6.64731 17.9836C6.19869 19.026 5.88181 20.149 5.76743 21.2883C5.62993 21.3286 5.6674 21.251 5.63266 21.2092C4.43436 19.7953 3.42831 18.0056 3.00571 16.1623ZM14.0565 9.92502C16.7962 10.7811 19.597 12.0208 21.6913 14.1028C21.7302 14.3452 19.9249 15.6298 19.6327 15.8176C17.0853 17.4627 14.1702 18.1952 11.1756 18.0774L11.1776 18.0422C11.1973 17.98 11.3177 18.0174 11.3797 18.0149C11.5751 18.0074 11.7722 18.0268 11.9676 18.0149C15.1126 17.8046 18.2112 16.4262 20.3416 13.9699C18.437 12.401 16.1689 11.3402 13.8807 10.5393L14.0565 9.92502ZM11.8788 11.2522C10.7383 13.2685 9.94013 15.5175 9.88071 17.8918C9.30784 17.8083 8.72913 17.7088 8.16782 17.5627C8.07237 17.5374 7.92767 17.5656 7.952 17.4406C8.0012 17.1946 8.30058 16.5919 8.42075 16.3264C9.26311 14.477 10.3179 12.6942 11.3788 10.9895L11.8788 11.2522ZM11.1502 10.9123C9.5003 12.7886 8.05058 14.8951 6.99692 17.2053L6.96665 17.2131C6.78036 17.2308 5.98478 16.8949 5.81235 16.8264C4.44469 16.2895 3.02074 15.5479 2.00766 14.4338C3.99053 14.7918 6.06341 14.0412 7.80747 13.0852C8.99996 12.4319 10.132 11.6309 10.9989 10.5422L11.1502 10.9123ZM24.3377 10.7278C24.6199 12.6159 24.4054 14.4758 23.867 16.2863C23.7165 16.3117 23.7758 16.271 23.744 16.1994C23.6862 16.0668 23.6645 15.8792 23.6024 15.7317C23.3578 15.1574 23.0262 14.6858 22.702 14.1653C23.3069 13.3107 23.9079 12.4397 24.1786 11.3928L24.3377 10.7278ZM3.26548 3.81174C3.37842 3.96532 3.86684 4.32451 3.82114 4.50802C3.80233 4.5826 3.03336 5.49597 2.89731 5.70627C1.82641 7.35874 1.1525 9.38419 1.4188 11.4065L1.87876 10.1926C2.53586 8.77272 3.27865 7.36733 4.32798 6.22189L4.76743 6.55783C3.11903 8.56974 1.87689 11.2125 2.24009 13.9387C1.74232 13.8907 1.20157 13.4403 0.890477 13.0422C-0.901343 10.7424 0.888681 7.04671 2.27524 4.98849L3.26548 3.81174ZM20.9598 3.99631C22.1669 5.2029 23.163 6.74091 23.6942 8.41135C23.8042 8.75882 23.9547 9.23315 23.9793 9.59396C24.0777 11.0495 23.1363 12.63 22.1942 13.6203L21.2352 12.7365C22.8504 10.1623 22.5836 6.702 20.5819 4.45138L20.9598 3.99826V3.99631ZM12.0995 8.33224C12.6928 8.22644 13.3267 8.43077 13.5438 9.07052C13.9373 10.2323 12.8065 11.2265 11.7586 10.636C10.8272 10.1106 11.0619 8.51715 12.0995 8.33224ZM4.86606 4.37717C5.91094 3.77339 6.92805 4.75432 6.53599 5.89963L7.06431 6.2922C8.30216 7.19802 9.59881 8.03306 10.9969 8.62814L10.7606 9.24533C9.1208 8.55032 7.59107 7.54192 6.1727 6.43381C5.69653 6.47557 5.52983 6.67961 5.02036 6.47677C4.13916 6.12614 4.04115 4.8529 4.86606 4.37717ZM19.3807 1.96213C21.0437 1.82193 21.1403 4.6151 19.2254 4.08713C19.0752 4.04512 18.951 3.85537 18.7733 3.97873C17.0032 5.37472 15.431 7.01517 13.9374 8.72287C13.7652 8.81678 13.5612 8.31071 13.3514 8.3176L13.3495 8.22873C14.8793 6.4152 16.6269 4.80444 18.4911 3.37717C18.4665 2.70909 18.6412 2.02476 19.3807 1.96213ZM6.71274 3.78439C9.60444 1.56369 13.3446 0.345142 16.8875 1.35763C17.4043 1.50529 17.8937 1.73264 18.4032 1.8967L18.0223 2.56564C14.3101 0.910427 9.93203 2.00516 6.79575 4.47775L6.41489 4.08615L6.71274 3.78439ZM9.75083 0.183806C11.1777 -0.0666947 12.5656 -0.0499829 13.994 0.166228C14.007 0.273527 13.8613 0.224854 13.7889 0.227751C13.3967 0.244156 13 0.20688 12.6092 0.227751C9.63926 0.378389 6.87285 1.63576 4.6063 3.61642C4.40824 3.65869 4.19411 3.1469 4.00474 3.03927C5.62866 1.60747 7.64493 0.553688 9.75083 0.183806Z" fill="white"/>
<path d="M37.2075 5.66895C38.8621 5.66895 40.0171 5.8602 40.895 6.24121C41.7706 6.62432 42.4269 7.14177 42.8647 7.79297C43.3027 8.44431 43.522 9.31064 43.522 10.3877H41.479C41.3819 9.14675 40.952 8.32497 40.1919 7.9248C39.4318 7.52474 38.4322 7.32227 37.1909 7.32227C36.0715 7.32227 35.1626 7.47336 34.4624 7.77344C33.7622 8.07356 33.254 8.66165 32.938 9.53223C32.622 10.4027 32.4624 11.3712 32.4624 12.4375C32.4624 13.5038 32.6035 14.4472 32.8823 15.2666C33.1612 16.0879 33.6609 16.6665 34.3774 17.0049C35.0942 17.3433 36.0323 17.5137 37.187 17.5137C38.2569 17.5137 39.209 17.3351 40.0435 16.9775C40.8759 16.6199 41.349 15.8152 41.4585 14.5615H43.52C43.52 15.7152 43.3069 16.5862 42.8813 17.1758C42.4558 17.7652 41.7987 18.244 40.9106 18.6143C40.0225 18.9845 38.7875 19.1699 37.2075 19.1699C35.6275 19.1699 34.2127 18.94 33.1841 18.4824C32.1554 18.0248 31.4526 17.25 31.0767 16.1602C30.6987 15.0704 30.5112 13.8295 30.5112 12.4375C30.5112 11.0455 30.7218 9.78967 31.1411 8.66797C31.5604 7.54626 32.2623 6.76679 33.2476 6.32617C34.2329 5.88769 35.553 5.66895 37.2075 5.66895ZM47.3169 13.3594C47.3169 14.7383 47.658 15.7747 48.3394 16.4707C49.021 17.1667 50.1537 17.5137 51.7339 17.5137C53.5472 17.5136 54.7327 17.1437 55.2925 16.4053C55.8522 15.6667 56.1313 14.6513 56.1313 13.3594V6.02637H58.1021V13.3594H58.104C58.104 14.7383 57.8809 15.8514 57.437 16.6963C56.9929 17.5413 56.356 18.1672 55.5298 18.5674C54.7015 18.9675 53.4377 19.1699 51.7339 19.1699C50.0298 19.1699 48.7343 18.9318 47.8833 18.4551C47.0324 17.9784 46.3964 17.3589 45.9771 16.5928C45.5578 15.8287 45.3472 14.7492 45.3472 13.3594V6.02637H47.3169V13.3594ZM94.728 12.2188L98.9302 5.92676H101.433L97.0415 12.2949L101.71 18.9277H99.0786L94.728 12.5205L89.8042 18.9277H87.2163L92.3511 12.4268L87.8296 5.92676H90.3989L94.728 12.2188ZM117.567 18.9258H115.125L113.83 15.8184H105.766L104.45 18.9258H102.244L107.869 5.9248H111.921L117.567 18.9258ZM66.9565 6.02441C68.4395 6.02441 69.6048 6.25 70.4517 6.70117C71.2964 7.15238 71.7201 7.95491 71.7202 9.1084C71.7202 10.1748 71.4808 10.9417 70.9995 11.4121C70.5182 11.8825 69.8773 12.1162 69.0737 12.1162V12.2676C70.3873 12.3059 71.2777 12.5339 71.7466 12.9531C72.2155 13.3725 72.4497 14.0215 72.4497 14.8984C72.4497 16.1521 72.032 17.1161 71.1997 17.793C70.3673 18.4699 69.1588 18.8086 67.5786 18.8086L61.9019 18.8115V18.8125H59.9321V6.02637H61.4087V6.02441H66.9565ZM85.2778 6.02637V7.64355H76.2446V11.5352H84.9302V13.0947H76.2446V17.1943H85.2778V18.8125H74.2739V6.02637H85.2778ZM61.9019 17.1953H67.4858C68.4958 17.1953 69.239 16.9733 69.7202 16.5264C70.2015 16.0815 70.4419 15.5091 70.4419 14.8066C70.4418 14.1427 70.2102 13.6765 69.7476 13.4062C69.2849 13.1381 68.4773 13.002 67.3208 13.002H61.9019V17.1953ZM106.528 14.0088H113.086L109.839 6.15234L106.528 14.0088ZM61.9019 11.5352H66.9194C67.9769 11.5352 68.7081 11.384 69.1089 11.084C69.5096 10.7839 69.7124 10.2815 69.7124 9.5791C69.7124 8.87686 69.4666 8.39388 68.9731 8.09375C68.4795 7.79362 67.8014 7.64258 66.938 7.64258H61.9019V11.5352ZM117.037 5.53906C117.156 5.54971 117.274 5.57336 117.39 5.60742C117.675 5.69257 117.925 5.83929 118.142 6.04785C118.303 6.20107 118.434 6.38006 118.533 6.58008C118.619 6.7572 118.678 6.94285 118.708 7.13672L118.731 7.3291C118.741 7.50788 118.729 7.68485 118.692 7.85938C118.653 8.04235 118.586 8.21898 118.498 8.38281C118.407 8.5531 118.29 8.70379 118.152 8.83789C117.968 9.01666 117.756 9.1536 117.518 9.24512C117.37 9.30037 117.217 9.33647 117.06 9.35352C116.93 9.3684 116.799 9.36643 116.669 9.35156C116.552 9.33881 116.438 9.31539 116.327 9.2793C116.11 9.21124 115.911 9.10239 115.734 8.95996C115.598 8.85144 115.48 8.72539 115.378 8.58496C115.25 8.40837 115.155 8.21257 115.093 8.00195C115.056 7.87429 115.031 7.74422 115.021 7.6123C115.019 7.5869 115.014 7.56347 115.012 7.53809V7.36133C115.014 7.35707 115.017 7.35014 115.017 7.34375C115.021 7.24165 115.036 7.13708 115.056 7.03711C115.114 6.76268 115.225 6.51343 115.39 6.29004C115.535 6.09208 115.711 5.93045 115.916 5.80273C116.161 5.65174 116.428 5.56267 116.712 5.53711C116.739 5.53498 116.765 5.5324 116.792 5.53027H116.968C116.991 5.53452 117.014 5.53903 117.037 5.53906ZM116.896 5.82812C116.008 5.81558 115.297 6.55243 115.297 7.44629C115.297 8.28832 115.913 8.97163 116.693 9.0625L116.849 9.07227C117.737 9.08491 118.454 8.34401 118.446 7.43945C118.442 6.55411 117.749 5.84089 116.896 5.82812ZM117.063 6.56348C117.203 6.56348 117.336 6.5956 117.456 6.66797C117.571 6.73608 117.644 6.83829 117.67 6.97656C117.693 7.10191 117.687 7.22086 117.654 7.33984C117.633 7.41204 117.59 7.46757 117.539 7.51855C117.477 7.57595 117.404 7.61233 117.326 7.63574C117.297 7.64423 117.266 7.65346 117.233 7.66406C117.371 7.88527 117.508 8.10852 117.648 8.33398H117.371C117.364 8.3338 117.358 8.32744 117.354 8.32324C117.226 8.11901 117.1 7.91241 116.972 7.70605C116.964 7.69126 116.956 7.68457 116.937 7.68457H116.588V8.33203H116.303V6.56348H117.063ZM116.586 7.43848H116.915C116.964 7.44059 117.012 7.43826 117.06 7.43164L117.198 7.39746C117.278 7.37188 117.336 7.3226 117.371 7.24609C117.399 7.18229 117.399 7.11021 117.389 7.04004C117.383 6.99331 117.365 6.94874 117.328 6.91895C117.297 6.8934 117.263 6.86992 117.228 6.84863C117.17 6.81257 117.102 6.80974 117.039 6.80762C116.892 6.80123 116.743 6.80371 116.596 6.80371H116.586V7.43848Z" fill="white"/>
</g>
</svg>
