<svg width="200" height="46" viewBox="0 0 200 46" fill="none" xmlns="http://www.w3.org/2000/svg">
<g clip-path="url(#clip0_2128_59)">
<path d="M58.461 29.6872L53.0467 16.7656H48.2539L56.0818 35.0375H60.6649L68.4927 16.7656H64.0355L58.461 29.6872Z" fill="#293E3C"/>
<path d="M74.9302 9.5456C74.3811 9.05713 73.6948 8.80908 72.8865 8.80908C72.0781 8.80908 71.3918 9.06858 70.8389 9.58376C70.2861 10.1028 70.0039 10.7553 70.0039 11.5262C70.0039 12.2971 70.2861 12.9496 70.8389 13.4686C71.388 13.9838 72.0781 14.2433 72.8865 14.2433C73.6948 14.2433 74.4154 13.9685 74.953 13.4305C75.4907 12.8924 75.7652 12.2169 75.7652 11.427C75.7652 10.637 75.483 10.0455 74.9264 9.54942L74.9302 9.5456Z" fill="#293E3C"/>
<path d="M75.1669 16.7656H70.5762V35.0375H75.1669V16.7656Z" fill="#293E3C"/>
<path d="M89.1647 30.7215C88.5813 31.1795 87.8378 31.4123 86.9532 31.4123C86.225 31.4123 85.6797 31.21 85.2832 30.7902C84.8905 30.3743 84.6884 29.756 84.6884 28.9432V20.6583H89.4659V16.8994H84.6884V12.8199H80.0977V29.0462C80.0977 31.0574 80.6582 32.6144 81.7639 33.6791C82.8696 34.74 84.4444 35.2742 86.4499 35.2742C87.2468 35.2742 88.0132 35.1712 88.7301 34.9651C89.4545 34.7591 90.0836 34.4423 90.5907 34.0225L90.7089 33.9271L89.3821 30.5498L89.1647 30.7215Z" fill="#293E3C"/>
<path d="M106.36 18.6395C105.708 18.0174 104.957 17.529 104.126 17.1817C103.134 16.7734 102.036 16.5635 100.854 16.5635C99.0888 16.5635 97.4874 16.9565 96.0918 17.7274C94.6925 18.5021 93.5868 19.6011 92.8051 21.0017C92.0235 22.3984 91.627 24.047 91.627 25.9017C91.627 27.7563 92.0235 29.4125 92.8051 30.8169C93.5906 32.2289 94.6963 33.3356 96.0918 34.1064C97.4874 34.8773 99.0888 35.2704 100.854 35.2704C102.101 35.2704 103.256 35.0528 104.293 34.6178C105.163 34.2553 105.921 33.7363 106.562 33.0684V35.0376H110.955V16.7657H106.364V18.6395H106.36ZM104.984 22.0015C105.941 22.9823 106.429 24.295 106.429 25.9017C106.429 27.5083 105.944 28.821 104.984 29.8018C104.026 30.7825 102.795 31.2786 101.323 31.2786C99.8514 31.2786 98.6236 30.7825 97.678 29.8018C96.7286 28.821 96.2482 27.5083 96.2482 25.8978C96.2482 24.2874 96.7286 22.9746 97.678 21.9939C98.6236 21.0169 99.8514 20.517 101.323 20.517C102.795 20.517 104.026 21.0131 104.984 21.9939V22.0015Z" fill="#293E3C"/>
<path d="M126.546 24.9358C125.628 24.6457 124.434 24.3824 123.012 24.1611C121.609 23.9207 120.56 23.6612 119.897 23.3864C119.298 23.1422 119.008 22.7376 119.008 22.1576C119.008 21.631 119.287 21.215 119.859 20.883C120.457 20.5357 121.361 20.3602 122.543 20.3602C124.388 20.3602 126.074 20.799 127.549 21.6691L127.74 21.7798L129.532 18.2346L129.368 18.1353C128.575 17.6583 127.542 17.2729 126.299 16.9905C125.063 16.7081 123.813 16.5669 122.577 16.5669C120.137 16.5669 118.17 17.0935 116.724 18.1277C115.26 19.1772 114.517 20.6006 114.517 22.3598C114.517 23.7031 114.879 24.7679 115.592 25.5273C116.294 26.2752 117.132 26.8057 118.086 27.1034C119.016 27.3972 120.236 27.6567 121.708 27.878C123.092 28.0994 124.106 28.3322 124.724 28.5688C125.277 28.7825 125.544 29.145 125.544 29.6793C125.544 30.8661 124.388 31.4462 122.009 31.4462C120.942 31.4462 119.843 31.2859 118.741 30.9691C117.643 30.6524 116.69 30.2288 115.908 29.7098L115.714 29.58L113.926 33.1253L114.071 33.2283C114.91 33.8198 116.046 34.3121 117.441 34.6975C118.833 35.0792 120.282 35.2738 121.738 35.2738C124.263 35.2738 126.295 34.7548 127.77 33.732C129.273 32.694 130.031 31.2859 130.031 29.5495C130.031 28.2291 129.681 27.1911 128.987 26.4622C128.308 25.7486 127.484 25.2372 126.543 24.9358H126.546Z" fill="#3FBC72"/>
<path d="M146.491 18.6395C145.839 18.0174 145.088 17.529 144.253 17.1817C143.261 16.7734 142.163 16.5635 140.981 16.5635C139.216 16.5635 137.614 16.9565 136.219 17.7274C134.819 18.5021 133.714 19.6011 132.932 21.0017C132.15 22.3984 131.754 24.047 131.754 25.9017C131.754 27.7563 132.15 29.4125 132.932 30.8169C133.718 32.2289 134.823 33.3356 136.219 34.1064C137.614 34.8773 139.216 35.2704 140.981 35.2704C142.228 35.2704 143.383 35.0528 144.42 34.6178C145.29 34.2553 146.048 33.7363 146.689 33.0684V35.0376H151.081V16.7657H146.491V18.6395ZM145.11 22.0015C146.068 22.9823 146.556 24.295 146.556 25.9017C146.556 27.5083 146.071 28.821 145.11 29.8018C144.153 30.7825 142.922 31.2786 141.45 31.2786C139.978 31.2786 138.751 30.7825 137.805 29.8018C136.856 28.821 136.375 27.5083 136.375 25.8978C136.375 24.2874 136.856 22.9746 137.805 21.9939C138.751 21.0169 139.978 20.517 141.45 20.517C142.922 20.517 144.153 21.0131 145.11 21.9939V22.0015Z" fill="#3FBC72"/>
<path d="M169.88 18.8037C169.216 18.1129 168.419 17.5825 167.508 17.2161C166.429 16.7849 165.217 16.5674 163.905 16.5674C162.185 16.5674 160.611 16.9337 159.215 17.6626C157.816 18.3915 156.699 19.4371 155.894 20.7652C155.086 22.097 154.678 23.6464 154.678 25.3713C154.678 27.0962 155.086 28.6532 155.894 29.9927C156.699 31.336 157.82 32.3892 159.215 33.1296C160.607 33.8661 162.185 34.2401 163.905 34.2401C165.152 34.2401 166.311 34.034 167.356 33.6257C168.24 33.2784 169.018 32.7899 169.678 32.1679V32.5991C169.678 34.3622 169.239 35.6826 168.37 36.5298C167.5 37.377 166.097 37.8082 164.206 37.8082C163.009 37.8082 161.812 37.6136 160.645 37.232C159.482 36.8503 158.51 36.3428 157.755 35.7131L157.568 35.5567L155.482 39.0599L155.62 39.1744C156.641 40.014 157.945 40.6627 159.505 41.1016C161.053 41.5404 162.715 41.7618 164.439 41.7618C170.963 41.7618 174.268 38.518 174.268 32.1221V16.7658H169.876V18.8037H169.88ZM168.29 21.8719C169.254 22.7648 169.742 23.9364 169.742 25.3637C169.742 26.7909 169.254 28.0045 168.29 28.9089C167.321 29.8133 166.059 30.2751 164.538 30.2751C163.017 30.2751 161.72 29.8171 160.752 28.9089C159.787 28.0083 159.299 26.8138 159.299 25.3637C159.299 23.9135 159.787 22.761 160.752 21.8719C161.72 20.9751 162.994 20.5209 164.538 20.5209C166.082 20.5209 167.321 20.9751 168.29 21.8719Z" fill="#3FBC72"/>
<path d="M196.487 25.6992C196.487 23.8636 196.072 22.2379 195.256 20.8603C194.44 19.4864 193.315 18.4103 191.916 17.6738C190.52 16.9372 188.953 16.5633 187.256 16.5633C185.468 16.5633 183.844 16.9678 182.425 17.7615C181.007 18.5591 179.878 19.6811 179.07 21.1007C178.265 22.5203 177.857 24.1346 177.857 25.9014C177.857 27.6683 178.277 29.3207 179.104 30.7365C179.932 32.1561 181.125 33.2819 182.646 34.0757C184.16 34.8694 185.937 35.2701 187.92 35.2701C189.475 35.2701 190.898 35.0183 192.141 34.5184C193.391 34.0184 194.432 33.2666 195.233 32.2821L195.343 32.1485L192.88 29.2711L192.72 29.4314C191.473 30.6793 189.895 31.3089 188.023 31.3089C186.749 31.3089 185.651 31.0494 184.751 30.5343C183.931 30.0649 183.314 29.3932 182.906 28.527L196.483 25.8671V25.6954L196.487 25.6992ZM183.687 21.7647C184.587 20.8107 185.792 20.326 187.264 20.326C188.457 20.326 189.491 20.6504 190.329 21.2877C191.111 21.8792 191.652 22.6577 191.946 23.6041L182.326 25.4549C182.364 23.9247 182.822 22.6844 183.687 21.7685V21.7647Z" fill="#3FBC72"/>
<path d="M41.953 11.5794C41.953 11.5794 42.0903 13.9301 34.6284 24.0277C30.1407 30.0993 28.9053 34.5871 28.627 37.2011C38.8798 35.4304 40.9845 22.0891 40.9845 22.0891C39.2344 38.8688 28.688 39.8457 28.688 39.8457C50.3833 44.1886 41.953 11.5755 41.953 11.5755V11.5794Z" fill="#3FBC72"/>
<path d="M22.8789 3.26017C22.8789 3.26017 24.0456 4.93166 23.1115 15.762C22.551 22.2762 23.6682 26.1496 24.6481 28.2027C31.4122 22.2456 26.9244 11.4497 26.9244 11.4497C33.2309 24.6231 25.8911 30.126 25.8911 30.126C43.8613 23.4935 22.8789 3.25635 22.8789 3.25635V3.26017Z" fill="#3FBC72"/>
<path d="M10.1737 10.7398C10.1737 10.7398 11.4282 11.6519 13.4528 19.6849C14.6691 24.5162 16.4421 27.0234 17.6584 28.2598C21.0443 22.2837 15.1229 15.6321 15.1229 15.6321C22.9431 23.5431 19.0311 29.3398 19.0311 29.3398C30.3172 20.0818 10.1699 10.7436 10.1699 10.7436L10.1737 10.7398Z" fill="#3FBC72"/>
<path d="M3.51562 21.1008C3.51562 21.1008 4.62137 21.4328 8.01484 26.5808C10.0547 29.6757 11.9116 31.0037 13.0707 31.5723C13.9858 26.5426 8.19405 23.3218 8.19405 23.3218C15.6292 26.9624 14.2985 31.9921 14.2985 31.9921C19.9606 22.715 3.51562 21.1008 3.51562 21.1008Z" fill="#3FBC72"/>
<path d="M21.3412 40.2466C24.0851 40.2466 26.3094 38.0204 26.3094 35.2742C26.3094 32.5279 24.0851 30.3017 21.3412 30.3017C18.5974 30.3017 16.373 32.5279 16.373 35.2742C16.373 38.0204 18.5974 40.2466 21.3412 40.2466Z" fill="#3FBC72"/>
</g>
<defs>
<clipPath id="clip0_2128_59">
<rect width="200" height="45.283" fill="white"/>
</clipPath>
</defs>
</svg>
