<svg width="228" height="63" viewBox="0 0 228 63" fill="none" xmlns="http://www.w3.org/2000/svg">
<path d="M19.0148 44.9373C19.3564 44.6978 21.3295 45.4023 21.879 45.5291C22.8194 45.744 23.774 45.9487 24.7355 46.0438C25.2182 52.4575 29.4909 57.7126 35.7462 58.9559L37.8976 59.3114C30.1875 61.3048 22.2376 59.3433 16.3731 53.9227C16.1092 53.4574 18.549 45.2685 19.0148 44.9373ZM18.4073 57.3846L19.5948 57.9979L19.5909 58.0008C19.6191 58.2791 19.3021 58.1173 19.1612 58.075C18.0941 57.7545 17.1322 56.9233 16.0333 56.6698L16.0196 55.8104L18.4073 57.3846ZM54.4269 36.5477C54.6135 36.5266 54.7157 36.5795 54.8565 36.6922C55.2194 36.9846 56.1211 38.4568 56.3712 38.9393C57.0263 40.2002 57.6431 41.9788 57.2804 43.4159C57.0901 44.1697 55.8045 46.2268 55.3185 46.9559C52.5501 51.126 47.5167 55.7077 42.7267 57.159C34.9567 59.5118 27.5386 54.3735 26.4571 46.3289C36.601 47.3997 47.1957 43.8491 54.4269 36.5477ZM0.712992 31.45C0.984175 32.5911 1.90646 34.0389 2.71299 34.8807C3.06514 35.2505 3.45298 35.3632 3.67491 35.578C3.91441 35.8069 4.15741 36.4553 4.43565 36.7723C4.76674 37.1492 5.91132 38.178 6.07334 38.4598C6.39736 39.0236 6.69009 41.1369 6.93663 41.9539C8.06722 45.7154 9.77508 49.2481 12.3038 52.2313C12.6876 52.6855 14.2341 54.0269 14.3722 54.3514C14.5201 54.6966 14.425 55.2675 14.587 55.662C14.5166 55.7324 13.4241 55.0178 13.255 54.9051C6.348 50.2699 0.215797 40.6189 0.571391 31.9579C0.578435 31.7817 0.462914 31.4148 0.712992 31.45ZM7.86729 39.911C10.5794 41.8341 13.6829 42.9649 16.7296 44.2118C15.6378 46.6736 14.8663 49.3256 14.588 52.0164C14.2534 52.1115 14.3444 51.9285 14.2599 51.8299C11.3436 48.4909 8.89575 44.2643 7.86729 39.911ZM34.756 25.1815C41.4235 27.2032 48.2394 30.1307 53.336 35.0477C53.4319 35.6195 49.0394 38.6532 48.3273 39.0975C42.1281 42.9825 35.0337 44.7127 27.7462 44.4344L27.7442 44.3875C27.7549 44.1907 28.0813 44.2926 28.2433 44.286C28.7186 44.2684 29.1976 44.3141 29.673 44.286C37.3266 43.7893 44.8681 40.5351 50.0528 34.7342C45.4177 31.0289 39.8987 28.5241 34.3302 26.6327L34.756 25.1815ZM29.4571 28.3162C26.6817 33.0782 24.7412 38.3896 24.5968 43.9969C23.202 43.7997 21.7925 43.5638 20.4259 43.2186C20.1934 43.1588 19.8416 43.2253 19.9015 42.9295C20.0213 42.3483 20.7507 40.9256 21.0431 40.2987C23.093 35.9311 25.6605 31.722 28.2423 27.6961L29.4571 28.3162ZM27.6856 27.5125C23.6704 31.9434 20.1414 36.9172 17.5773 42.3729L17.5431 42.3866C17.1774 42.4872 15.1286 41.6455 14.6954 41.4784C11.367 40.2104 7.90115 38.46 5.43565 35.8289C10.2609 36.6743 15.3047 34.903 19.5489 32.6454C22.4512 31.1026 25.2057 29.2107 27.3155 26.6395L27.6856 27.5125ZM59.7794 27.077C60.4661 31.5359 59.9441 35.9281 58.6339 40.2039C58.2684 40.2636 58.4122 40.1686 58.3351 39.9998C58.1942 39.6864 58.1408 39.2421 57.9894 38.8934C57.3941 37.5375 56.5879 36.4243 55.7989 35.1952C57.2712 33.1769 58.7331 31.1199 59.3917 28.6473L59.7794 27.077ZM8.49522 10.744C8.7699 11.1067 9.95991 11.9552 9.84776 12.3885C9.80197 12.5646 7.93178 14.721 7.60069 15.2176C4.99438 19.1202 3.35301 23.9035 4.00108 28.6795L5.1212 25.8123C6.72027 22.4592 8.52758 19.1414 11.0812 16.4364L12.1515 17.2284C8.13967 21.9798 5.11798 28.2214 6.00205 34.66C4.79042 34.5473 3.4732 33.4832 2.71592 32.5428C-1.6445 27.1117 2.71178 18.384 6.08604 13.5233L8.49522 10.744ZM51.5558 11.1805C54.4933 14.03 56.9174 17.6614 58.2101 21.6063C58.4777 22.4269 58.8436 23.5471 58.9034 24.3993C59.1428 27.8369 56.8535 31.5703 54.5606 33.909L52.2257 31.8202C56.1563 25.7409 55.5078 17.5697 50.6368 12.2547L51.5558 11.1834V11.1805ZM29.9933 21.4188C31.4373 21.1687 32.9804 21.6512 33.5089 23.162C34.4669 25.9057 31.7161 28.2556 29.1661 26.8612C26.8979 25.6214 27.4681 21.8558 29.9933 21.4188ZM12.3927 12.078C14.9357 10.6515 17.4126 12.9696 16.4581 15.6746L17.7442 16.6004C20.7566 18.7396 23.9112 20.7117 27.3136 22.117L26.7394 23.575C22.7487 21.9337 19.0251 19.5524 15.5733 16.9354C14.4148 17.0341 14.0093 17.5169 12.7696 17.0379C10.6249 16.2101 10.3853 13.2016 12.3927 12.078ZM47.712 6.37582C51.7591 6.04473 51.995 12.6422 47.3351 11.3954C46.969 11.2965 46.6665 10.8465 46.2335 11.1385C41.9258 14.4353 38.0999 18.3097 34.4649 22.3426C34.046 22.5636 33.5496 21.3676 33.0392 21.3846L33.0353 21.1766C36.7582 16.8936 41.0094 13.0894 45.546 9.71859C45.4862 8.14079 45.9125 6.52392 47.712 6.37582ZM16.8878 10.6795C23.9252 5.43498 33.0271 2.55748 41.6495 4.94906C42.9068 5.29776 44.0973 5.83315 45.337 6.22055L44.4103 7.8016C35.376 3.89222 24.7215 6.47768 17.089 12.3172L16.1622 11.3914L16.8878 10.6795ZM24.2804 2.17758C27.7533 1.58585 31.1311 1.62486 34.6075 2.13558C34.6387 2.38848 34.2836 2.27222 34.1075 2.27914C33.153 2.31788 32.1874 2.22983 31.2364 2.27914C24.0089 2.63493 17.2776 5.6046 11.7618 10.2821C11.2794 10.3834 10.7582 9.17231 10.297 8.91879C14.2489 5.53747 19.1556 3.05109 24.2804 2.17758Z" fill="#5B726F"/>
<path d="M86.4346 12.917C89.2557 12.917 91.2248 13.2338 92.7217 13.8643C94.2151 14.4983 95.3353 15.3548 96.082 16.4326C96.8286 17.5104 97.2021 18.9436 97.2021 20.7256H93.7188C93.5532 18.6722 92.8205 17.3126 91.5244 16.6504C90.2282 15.9882 88.5231 15.6533 86.4062 15.6533C84.4975 15.6533 82.9479 15.9038 81.7539 16.4004C80.5599 16.897 79.6932 17.8691 79.1543 19.3096C78.6154 20.75 78.3438 22.3527 78.3438 24.1172C78.3438 25.8818 78.5841 27.4428 79.0596 28.7988C79.5351 30.1583 80.3872 31.1168 81.6094 31.6768C82.8315 32.2367 84.4307 32.5185 86.3994 32.5186C88.2238 32.5186 89.8476 32.2225 91.2705 31.6309C92.69 31.0391 93.4969 29.7074 93.6836 27.6328H97.1982C97.1982 29.5418 96.8359 30.9824 96.1104 31.958C95.3848 32.9336 94.2645 33.726 92.75 34.3389C91.2354 34.9517 89.1291 35.2588 86.4346 35.2588C83.7401 35.2588 81.3273 34.8784 79.5732 34.1211C77.8192 33.3638 76.6215 32.0816 75.9805 30.2783C75.3359 28.4749 75.0156 26.4207 75.0156 24.1172C75.0157 21.8139 75.3749 19.7359 76.0898 17.8799C76.8049 16.0237 78.0025 14.734 79.6826 14.0049C81.3627 13.2794 83.6134 12.917 86.4346 12.917ZM103.673 25.6426C103.673 27.9248 104.254 29.6402 105.416 30.792C106.578 31.9437 108.509 32.5185 111.203 32.5186C114.296 32.5186 116.318 31.9058 117.272 30.6836C118.227 29.4614 118.702 27.7806 118.702 25.6426V13.5088H122.062V25.6426H122.065C122.065 27.925 121.685 29.7677 120.928 31.166C120.17 32.5641 119.086 33.5996 117.677 34.2617C116.264 34.9238 114.109 35.2588 111.203 35.2588C108.297 35.2588 106.089 34.8642 104.638 34.0752C103.187 33.2862 102.102 32.2612 101.387 30.9932C100.672 29.7287 100.312 27.9426 100.312 25.6426V13.5088H103.673V25.6426ZM184.518 23.7549L191.682 13.3438H195.95L188.462 23.8818L196.423 34.8574H191.936L184.518 24.2549L176.12 34.8574H171.707L180.463 24.1006L172.753 13.3438H177.135L184.518 23.7549ZM223.46 34.8545H219.297L217.088 29.7119H203.338L201.094 34.8545H197.332L206.923 13.3408H213.834L223.46 34.8545ZM168.399 13.5088V16.1855H152.997V22.624H167.808V25.2061H152.997V31.9902H168.399V34.667H149.637V13.5088H168.399ZM137.159 13.5049C139.688 13.5049 141.674 13.8784 143.118 14.625C144.559 15.3717 145.281 16.6995 145.281 18.6084C145.281 20.373 144.872 21.6415 144.052 22.4199C143.231 23.1982 142.139 23.5858 140.77 23.5859V23.8359C143.009 23.8994 144.528 24.2759 145.327 24.9697C146.127 25.6636 146.524 26.7384 146.524 28.1895C146.524 30.2638 145.813 31.8595 144.394 32.9795C142.974 34.0995 140.913 34.6592 138.219 34.6592L128.54 34.665V34.666H125.18V13.5088H127.698V13.5049H137.159ZM128.54 31.9893H138.061C139.783 31.9892 141.05 31.6232 141.871 30.8838C142.692 30.1476 143.101 29.1994 143.101 28.0371C143.1 26.9384 142.706 26.167 141.917 25.7197C141.128 25.276 139.75 25.0508 137.778 25.0508H128.54V31.9893ZM204.637 26.7178H215.82L210.283 13.7168L204.637 26.7178ZM128.54 22.624H137.096C138.899 22.624 140.146 22.3736 140.829 21.877C141.512 21.3803 141.857 20.5489 141.857 19.3867C141.857 18.2247 141.438 17.4253 140.597 16.9287C139.755 16.4321 138.599 16.1816 137.127 16.1816H128.54V22.624ZM222.558 12.7021C222.762 12.7198 222.962 12.7582 223.159 12.8145C223.645 12.9553 224.072 13.1988 224.441 13.5439C224.716 13.7975 224.938 14.0937 225.107 14.4248C225.28 14.7669 225.388 15.1279 225.431 15.5078L225.445 15.6641C225.463 15.9598 225.442 16.2523 225.379 16.541C225.312 16.8439 225.199 17.137 225.048 17.4082C224.893 17.6899 224.695 17.9393 224.459 18.1611C224.146 18.457 223.783 18.6825 223.378 18.834C223.124 18.9256 222.863 18.9855 222.596 19.0137C222.374 19.0383 222.152 19.0353 221.931 19.0107C221.73 18.9896 221.536 18.9505 221.346 18.8906C220.976 18.7779 220.638 18.5982 220.335 18.3623C220.102 18.1827 219.901 17.9747 219.729 17.7422C219.51 17.45 219.349 17.1259 219.243 16.7773C219.18 16.566 219.137 16.3512 219.119 16.1328C219.116 16.0907 219.109 16.0519 219.105 16.0098V15.7168C219.109 15.7098 219.112 15.6989 219.112 15.6885C219.119 15.5196 219.144 15.347 219.18 15.1816C219.278 14.7273 219.468 14.3151 219.75 13.9453C219.997 13.6178 220.296 13.35 220.645 13.1387C221.064 12.8887 221.518 12.7405 222.004 12.6982C222.05 12.6947 222.092 12.692 222.138 12.6885H222.441C222.48 12.6955 222.519 12.7021 222.558 12.7021ZM222.317 13.1807C220.803 13.1597 219.592 14.3792 219.592 15.8584C219.592 17.2517 220.641 18.3818 221.971 18.5322L222.236 18.5488C223.751 18.57 224.973 17.3445 224.959 15.8477C224.952 14.3824 223.772 13.2018 222.317 13.1807ZM222.601 14.3975C222.84 14.3975 223.066 14.4496 223.271 14.5693C223.468 14.682 223.591 14.8513 223.637 15.0801C223.675 15.2879 223.665 15.4854 223.608 15.6826C223.573 15.8024 223.499 15.894 223.411 15.9785C223.305 16.0736 223.182 16.1331 223.048 16.1719C222.999 16.1859 222.946 16.2002 222.89 16.2178C223.126 16.584 223.358 16.9539 223.598 17.3271H223.126C223.115 17.3271 223.105 17.3166 223.098 17.3096C222.879 16.9715 222.665 16.6297 222.446 16.2881C222.432 16.2635 222.417 16.2529 222.386 16.2529H221.791V17.3242H221.305V14.3975H222.601ZM221.787 15.8447H222.473C222.555 15.8411 222.637 15.8301 222.717 15.8115L222.83 15.7773C222.967 15.735 223.066 15.654 223.126 15.5273C223.175 15.4218 223.175 15.3017 223.157 15.1855C223.147 15.1083 223.115 15.0346 223.052 14.9854C222.999 14.9431 222.943 14.9043 222.883 14.8691C222.784 14.8093 222.668 14.8053 222.559 14.8018C222.434 14.7965 222.308 14.7954 222.182 14.7949H221.787V15.8447Z" fill="#293E3C"/>
<path d="M210.36 46.7277C211.58 47.0148 212.127 47.4544 212.127 48.4682C212.127 49.3475 211.526 50.3254 209.911 50.3254C208.951 50.3254 207.955 49.8947 207.65 48.9078L208.539 48.6297C208.628 49.0424 209.095 49.482 209.929 49.482C210.611 49.482 211.212 49.186 211.212 48.54C211.212 47.6877 210.45 47.6518 209.454 47.4095C208.189 47.1045 207.902 46.4406 207.902 45.6241C207.902 44.5655 208.808 43.8208 209.974 43.8208C210.871 43.8208 211.616 44.3053 211.876 45.1755L210.997 45.3909C210.871 45.0141 210.548 44.6552 209.884 44.6552C209.283 44.6552 208.799 45.023 208.799 45.6241C208.799 46.4226 209.561 46.5482 210.36 46.7277Z" fill="#777471"/>
<path d="M203.721 49.3926H206.305V50.209H202.824V43.9287H203.721V49.3926Z" fill="#777471"/>
<path d="M200.331 50.209L199.801 48.7017H197.11L196.58 50.209H195.611L197.944 43.9287H198.967L201.299 50.209H200.331ZM197.397 47.8763H199.505L198.455 44.8887L197.397 47.8763Z" fill="#777471"/>
<path d="M191.907 49.4821C192.669 49.4821 193.262 49.1501 193.656 48.6656L194.401 49.1591C193.827 49.8768 192.948 50.3254 191.907 50.3254C190.05 50.3254 188.713 48.9079 188.713 47.0687C188.713 45.2294 190.05 43.8208 191.907 43.8208C192.948 43.8208 193.827 44.2605 194.401 44.9872L193.656 45.4717C193.262 44.9872 192.669 44.6552 191.907 44.6552C190.444 44.6552 189.628 45.8485 189.628 47.0687C189.628 48.2888 190.444 49.4821 191.907 49.4821Z" fill="#777471"/>
<path d="M186.066 43.9287H186.964V50.209H186.066V43.9287Z" fill="#777471"/>
<path d="M184.358 43.9287V44.7451H182.77V50.209H181.873V44.7451H180.285V43.9287H184.358Z" fill="#777471"/>
<path d="M177.675 43.9287H178.582V47.8225C178.582 49.4554 177.72 50.3256 176.195 50.3256C174.661 50.3256 173.809 49.4554 173.809 47.8225V43.9287H174.706V47.661C174.706 49.0068 175.289 49.4733 176.195 49.4733C177.092 49.4733 177.675 49.0068 177.675 47.661V43.9287Z" fill="#777471"/>
<path d="M169.371 49.3926H172.018V50.209H168.465V43.9287H171.928V44.7451H169.371V46.5485H171.731V47.3649H169.371V49.3926Z" fill="#777471"/>
<path d="M164.401 49.482C165.164 49.482 165.756 49.1501 166.151 48.6656L166.895 49.159C166.321 49.8768 165.442 50.3254 164.401 50.3254C162.544 50.3254 161.207 48.9078 161.207 47.0686C161.207 45.2294 162.544 43.8208 164.401 43.8208C165.442 43.8208 166.321 44.2604 166.895 44.9871L166.151 45.4716C165.756 44.9871 165.164 44.6552 164.401 44.6552C162.939 44.6552 162.122 45.8484 162.122 47.0686C162.122 48.2888 162.939 49.482 164.401 49.482Z" fill="#777471"/>
<path d="M159.209 50.209L158.68 48.7017H155.989L155.459 50.209H154.49L156.823 43.9287H157.846L160.178 50.209H159.209ZM156.276 47.8763H158.384L157.334 44.8887L156.276 47.8763Z" fill="#777471"/>
<path d="M153.417 50.209H152.34L151.04 47.7777C150.968 47.7866 150.887 47.7866 150.797 47.7866H149.757V50.209H148.859V43.9287H150.797C152.233 43.9287 153.058 44.7721 153.058 45.8577C153.058 46.6203 152.654 47.2573 151.928 47.5713L153.417 50.209ZM149.757 46.9702H150.797C151.668 46.9702 152.134 46.5306 152.134 45.8577C152.134 45.1848 151.668 44.7452 150.797 44.7452H149.757V46.9702Z" fill="#777471"/>
<path d="M147.151 43.9287V44.7451H145.563V50.209H144.666V44.7451H143.078V43.9287H147.151Z" fill="#777471"/>
<path d="M140.47 43.9287H141.377V47.8225C141.377 49.4554 140.515 50.3256 138.99 50.3256C137.456 50.3256 136.604 49.4554 136.604 47.8225V43.9287H137.501V47.661C137.501 49.0068 138.084 49.4733 138.99 49.4733C139.887 49.4733 140.47 49.0068 140.47 47.661V43.9287Z" fill="#777471"/>
<path d="M133.727 43.9287H134.624V50.209H133.843L130.587 45.5795V50.209H129.689V43.9287H130.47L133.727 48.5582V43.9287Z" fill="#777471"/>
<path d="M123.678 43.9287H124.575V50.209H123.795L120.538 45.5795V50.209H119.641V43.9287H120.421L123.678 48.5582V43.9287Z" fill="#777471"/>
<path d="M114.708 43.8208C116.565 43.8208 117.893 45.2294 117.893 47.0686C117.893 48.9078 116.565 50.3254 114.708 50.3254C112.842 50.3254 111.514 48.9078 111.514 47.0686C111.514 45.2294 112.842 43.8208 114.708 43.8208ZM114.708 49.482C116.17 49.482 116.986 48.2888 116.986 47.0686C116.986 45.8484 116.17 44.6552 114.708 44.6552C113.245 44.6552 112.429 45.8484 112.429 47.0686C112.429 48.2888 113.245 49.482 114.708 49.482Z" fill="#777471"/>
<path d="M108.865 43.9287H109.762V50.209H108.865V43.9287Z" fill="#777471"/>
<path d="M105.487 46.7277C106.707 47.0148 107.254 47.4544 107.254 48.4682C107.254 49.3475 106.653 50.3254 105.038 50.3254C104.078 50.3254 103.082 49.8947 102.777 48.9078L103.666 48.6297C103.755 49.0424 104.222 49.482 105.056 49.482C105.738 49.482 106.339 49.186 106.339 48.54C106.339 47.6877 105.577 47.6518 104.581 47.4095C103.316 47.1045 103.029 46.4406 103.029 45.6241C103.029 44.5655 103.935 43.8208 105.101 43.8208C105.998 43.8208 106.743 44.3053 107.003 45.1755L106.124 45.3909C105.998 45.0141 105.675 44.6552 105.011 44.6552C104.41 44.6552 103.926 45.023 103.926 45.6241C103.926 46.4226 104.688 46.5482 105.487 46.7277Z" fill="#777471"/>
<path d="M100.352 43.9287H101.249V50.209H100.352V43.9287Z" fill="#777471"/>
<path d="M96.2858 49.482C97.0484 49.482 97.6405 49.1501 98.0353 48.6656L98.7799 49.159C98.2057 49.8768 97.3265 50.3254 96.2858 50.3254C94.4286 50.3254 93.0918 48.9078 93.0918 47.0686C93.0918 45.2294 94.4286 43.8208 96.2858 43.8208C97.3265 43.8208 98.2057 44.2604 98.7799 44.9871L98.0353 45.4716C97.6405 44.9871 97.0484 44.6552 96.2858 44.6552C94.8234 44.6552 94.0069 45.8484 94.0069 47.0686C94.0069 48.2888 94.8234 49.482 96.2858 49.482Z" fill="#777471"/>
<path d="M88.9647 49.3926H91.6114V50.209H88.0586V43.9287H91.5217V44.7451H88.9647V46.5485H91.3243V47.3649H88.9647V49.3926Z" fill="#777471"/>
<path d="M86.5382 50.209H85.4615L84.1606 47.7776C84.0889 47.7866 84.0081 47.7866 83.9184 47.7866H82.8777V50.209H81.9805V43.9287H83.9184C85.3539 43.9287 86.1793 44.7721 86.1793 45.8577C86.1793 46.6203 85.7756 47.2573 85.0488 47.5713L86.5382 50.209ZM82.8777 46.9702H83.9184C84.7887 46.9702 85.2552 46.5305 85.2552 45.8577C85.2552 45.1848 84.7887 44.7451 83.9184 44.7451H82.8777V46.9702Z" fill="#777471"/>
<path d="M78.0066 43.9287C79.4241 43.9287 80.2765 44.8349 80.2765 45.9833C80.2765 47.1317 79.4241 48.0288 78.0066 48.0288H76.903V50.209H76.0059V43.9287H78.0066ZM78.0066 47.2124C78.8499 47.2124 79.3524 46.719 79.3524 45.9833C79.3524 45.2476 78.8499 44.7451 78.0066 44.7451H76.903V47.2124H78.0066Z" fill="#777471"/>
</svg>
